<mxfile host="app.diagrams.net" agent="Mozilla/5.0 (Macintosh; Intel Mac OS X 10_15_7) AppleWebKit/605.1.15 (KHTML, like Gecko) Version/18.3.1 Safari/605.1.15" version="26.2.12">
  <diagram name="Page-1" id="fLZLpi68ccCL7RherstC">
    <mxGraphModel dx="1880" dy="738" grid="1" gridSize="10" guides="1" tooltips="1" connect="1" arrows="1" fold="1" page="1" pageScale="1" pageWidth="827" pageHeight="1169" math="0" shadow="0">
      <root>
        <mxCell id="0" />
        <mxCell id="1" parent="0" />
        <mxCell id="E3ElCluI1RF2q3SBLRe1-83" style="edgeStyle=orthogonalEdgeStyle;rounded=0;orthogonalLoop=1;jettySize=auto;html=1;exitX=0.5;exitY=1;exitDx=0;exitDy=0;entryX=0.5;entryY=0;entryDx=0;entryDy=0;entryPerimeter=0;" parent="1" source="E3ElCluI1RF2q3SBLRe1-56" target="E3ElCluI1RF2q3SBLRe1-65" edge="1">
          <mxGeometry relative="1" as="geometry" />
        </mxCell>
        <mxCell id="E3ElCluI1RF2q3SBLRe1-53" style="edgeStyle=orthogonalEdgeStyle;rounded=0;orthogonalLoop=1;jettySize=auto;html=1;exitX=0.5;exitY=1;exitDx=0;exitDy=0;entryX=0.5;entryY=0;entryDx=0;entryDy=0;" parent="1" source="E3ElCluI1RF2q3SBLRe1-1" target="E3ElCluI1RF2q3SBLRe1-9" edge="1">
          <mxGeometry relative="1" as="geometry" />
        </mxCell>
        <mxCell id="E3ElCluI1RF2q3SBLRe1-13" value="" style="edgeStyle=orthogonalEdgeStyle;rounded=0;orthogonalLoop=1;jettySize=auto;html=1;" parent="1" source="E3ElCluI1RF2q3SBLRe1-3" target="E3ElCluI1RF2q3SBLRe1-12" edge="1">
          <mxGeometry relative="1" as="geometry" />
        </mxCell>
        <mxCell id="E3ElCluI1RF2q3SBLRe1-3" value="20 fontes de informação" style="rounded=0;whiteSpace=wrap;html=1;fillColor=#dae8fc;strokeColor=#6c8ebf;" parent="1" vertex="1">
          <mxGeometry x="-150" y="60" width="140" height="40" as="geometry" />
        </mxCell>
        <mxCell id="E3ElCluI1RF2q3SBLRe1-9" value="3.056.418 URLs de páginas arquivadas" style="rounded=0;whiteSpace=wrap;html=1;fillColor=#dae8fc;strokeColor=#6c8ebf;" parent="1" vertex="1">
          <mxGeometry x="115.76" y="230" width="140" height="40" as="geometry" />
        </mxCell>
        <mxCell id="E3ElCluI1RF2q3SBLRe1-12" value="Pesquisa de URLs associados" style="rounded=0;whiteSpace=wrap;html=1;" parent="1" vertex="1">
          <mxGeometry x="10" y="60" width="140" height="40" as="geometry" />
        </mxCell>
        <mxCell id="E3ElCluI1RF2q3SBLRe1-14" value="" style="endArrow=classic;html=1;rounded=0;exitX=1;exitY=0.5;exitDx=0;exitDy=0;entryX=0.5;entryY=1;entryDx=0;entryDy=0;" parent="1" source="E3ElCluI1RF2q3SBLRe1-12" target="E3ElCluI1RF2q3SBLRe1-1" edge="1">
          <mxGeometry relative="1" as="geometry">
            <mxPoint x="320" y="20" as="sourcePoint" />
            <mxPoint x="420" y="20" as="targetPoint" />
            <Array as="points">
              <mxPoint x="186" y="80" />
            </Array>
          </mxGeometry>
        </mxCell>
        <mxCell id="E3ElCluI1RF2q3SBLRe1-15" value="CDX-server API" style="edgeLabel;resizable=0;html=1;;align=center;verticalAlign=middle;" parent="E3ElCluI1RF2q3SBLRe1-14" connectable="0" vertex="1">
          <mxGeometry relative="1" as="geometry">
            <mxPoint y="-8" as="offset" />
          </mxGeometry>
        </mxCell>
        <mxCell id="E3ElCluI1RF2q3SBLRe1-17" value="Extração do conteúdo arquivado" style="rounded=0;whiteSpace=wrap;html=1;" parent="1" vertex="1">
          <mxGeometry x="-90" y="179.99999999999997" width="140" height="40" as="geometry" />
        </mxCell>
        <mxCell id="E3ElCluI1RF2q3SBLRe1-19" value="" style="endArrow=classic;html=1;rounded=0;entryX=0.5;entryY=1;entryDx=0;entryDy=0;exitX=0;exitY=0.5;exitDx=0;exitDy=0;" parent="1" source="E3ElCluI1RF2q3SBLRe1-9" target="E3ElCluI1RF2q3SBLRe1-17" edge="1">
          <mxGeometry relative="1" as="geometry">
            <mxPoint x="460" y="20" as="sourcePoint" />
            <mxPoint x="560" y="20" as="targetPoint" />
            <Array as="points">
              <mxPoint x="-20" y="250" />
            </Array>
          </mxGeometry>
        </mxCell>
        <mxCell id="E3ElCluI1RF2q3SBLRe1-20" value="para cada URL" style="edgeLabel;resizable=0;html=1;;align=center;verticalAlign=middle;" parent="E3ElCluI1RF2q3SBLRe1-19" connectable="0" vertex="1">
          <mxGeometry relative="1" as="geometry" />
        </mxCell>
        <mxCell id="E3ElCluI1RF2q3SBLRe1-25" value="Validação do conteúdo" style="swimlane;fontStyle=0;childLayout=stackLayout;horizontal=1;startSize=30;horizontalStack=0;resizeParent=1;resizeParentMax=0;resizeLast=0;collapsible=1;marginBottom=0;whiteSpace=wrap;html=1;dashed=1;dashPattern=1 1;" parent="1" vertex="1">
          <mxGeometry x="-150" y="290" width="184" height="90" as="geometry" />
        </mxCell>
        <mxCell id="E3ElCluI1RF2q3SBLRe1-26" value="Evitar duplicados" style="text;strokeColor=none;fillColor=none;align=left;verticalAlign=middle;spacingLeft=4;spacingRight=4;overflow=hidden;points=[[0,0.5],[1,0.5]];portConstraint=eastwest;rotatable=0;whiteSpace=wrap;html=1;" parent="E3ElCluI1RF2q3SBLRe1-25" vertex="1">
          <mxGeometry y="30" width="184" height="30" as="geometry" />
        </mxCell>
        <mxCell id="E3ElCluI1RF2q3SBLRe1-27" value="Classificação de documentos (notícia/não notícia)" style="text;strokeColor=none;fillColor=none;align=left;verticalAlign=middle;spacingLeft=4;spacingRight=4;overflow=hidden;points=[[0,0.5],[1,0.5]];portConstraint=eastwest;rotatable=0;whiteSpace=wrap;html=1;" parent="E3ElCluI1RF2q3SBLRe1-25" vertex="1">
          <mxGeometry y="60" width="184" height="30" as="geometry" />
        </mxCell>
        <mxCell id="E3ElCluI1RF2q3SBLRe1-30" value="" style="endArrow=classic;html=1;rounded=0;exitX=0.5;exitY=0;exitDx=0;exitDy=0;entryX=1;entryY=0.5;entryDx=0;entryDy=0;" parent="1" source="E3ElCluI1RF2q3SBLRe1-17" target="E3ElCluI1RF2q3SBLRe1-1" edge="1">
          <mxGeometry relative="1" as="geometry">
            <mxPoint x="370" y="30" as="sourcePoint" />
            <mxPoint x="470" y="30" as="targetPoint" />
            <Array as="points">
              <mxPoint x="-20" y="158" />
            </Array>
          </mxGeometry>
        </mxCell>
        <mxCell id="E3ElCluI1RF2q3SBLRe1-31" value="&lt;i&gt;Web scraping&lt;/i&gt;" style="edgeLabel;resizable=0;html=1;;align=center;verticalAlign=middle;" parent="E3ElCluI1RF2q3SBLRe1-30" connectable="0" vertex="1">
          <mxGeometry relative="1" as="geometry">
            <mxPoint x="-103" as="offset" />
          </mxGeometry>
        </mxCell>
        <mxCell id="E3ElCluI1RF2q3SBLRe1-60" style="edgeStyle=orthogonalEdgeStyle;rounded=0;orthogonalLoop=1;jettySize=auto;html=1;exitX=1;exitY=0.5;exitDx=0;exitDy=0;entryX=0;entryY=0.5;entryDx=0;entryDy=0;" parent="1" source="E3ElCluI1RF2q3SBLRe1-36" target="E3ElCluI1RF2q3SBLRe1-56" edge="1">
          <mxGeometry relative="1" as="geometry" />
        </mxCell>
        <mxCell id="E3ElCluI1RF2q3SBLRe1-61" style="edgeStyle=orthogonalEdgeStyle;rounded=0;orthogonalLoop=1;jettySize=auto;html=1;exitX=1;exitY=0.5;exitDx=0;exitDy=0;entryX=0;entryY=0.5;entryDx=0;entryDy=0;" parent="1" source="E3ElCluI1RF2q3SBLRe1-36" target="E3ElCluI1RF2q3SBLRe1-57" edge="1">
          <mxGeometry relative="1" as="geometry" />
        </mxCell>
        <mxCell id="E3ElCluI1RF2q3SBLRe1-62" style="edgeStyle=orthogonalEdgeStyle;rounded=0;orthogonalLoop=1;jettySize=auto;html=1;exitX=1;exitY=0.5;exitDx=0;exitDy=0;entryX=0;entryY=0.5;entryDx=0;entryDy=0;" parent="1" source="E3ElCluI1RF2q3SBLRe1-36" target="E3ElCluI1RF2q3SBLRe1-58" edge="1">
          <mxGeometry relative="1" as="geometry" />
        </mxCell>
        <mxCell id="E3ElCluI1RF2q3SBLRe1-63" style="edgeStyle=orthogonalEdgeStyle;rounded=0;orthogonalLoop=1;jettySize=auto;html=1;exitX=1;exitY=0.5;exitDx=0;exitDy=0;entryX=0;entryY=0.5;entryDx=0;entryDy=0;" parent="1" source="E3ElCluI1RF2q3SBLRe1-36" target="E3ElCluI1RF2q3SBLRe1-59" edge="1">
          <mxGeometry relative="1" as="geometry" />
        </mxCell>
        <mxCell id="E3ElCluI1RF2q3SBLRe1-36" value="Mineração&lt;div&gt;de dados&lt;/div&gt;" style="rounded=0;whiteSpace=wrap;html=1;" parent="1" vertex="1">
          <mxGeometry x="377" y="88.97" width="90" height="40" as="geometry" />
        </mxCell>
        <mxCell id="E3ElCluI1RF2q3SBLRe1-56" value="Data de publicação" style="rounded=0;whiteSpace=wrap;html=1;" parent="1" vertex="1">
          <mxGeometry x="514" y="39" width="140" height="40" as="geometry" />
        </mxCell>
        <mxCell id="E3ElCluI1RF2q3SBLRe1-57" value="Fonte de informação" style="rounded=0;whiteSpace=wrap;html=1;" parent="1" vertex="1">
          <mxGeometry x="514" y="89" width="140" height="40" as="geometry" />
        </mxCell>
        <mxCell id="E3ElCluI1RF2q3SBLRe1-58" value="Perceção do sentimento" style="rounded=0;whiteSpace=wrap;html=1;" parent="1" vertex="1">
          <mxGeometry x="514" y="139" width="140" height="40" as="geometry" />
        </mxCell>
        <mxCell id="E3ElCluI1RF2q3SBLRe1-59" value="Tópicos mencionados" style="rounded=0;whiteSpace=wrap;html=1;" parent="1" vertex="1">
          <mxGeometry x="514" y="189" width="140" height="40" as="geometry" />
        </mxCell>
        <mxCell id="E3ElCluI1RF2q3SBLRe1-82" style="edgeStyle=orthogonalEdgeStyle;rounded=0;orthogonalLoop=1;jettySize=auto;html=1;exitX=0;exitY=0.5;exitDx=0;exitDy=0;exitPerimeter=0;entryX=1;entryY=0.5;entryDx=0;entryDy=0;" parent="1" source="E3ElCluI1RF2q3SBLRe1-65" target="E3ElCluI1RF2q3SBLRe1-71" edge="1">
          <mxGeometry relative="1" as="geometry" />
        </mxCell>
        <mxCell id="E3ElCluI1RF2q3SBLRe1-85" style="edgeStyle=orthogonalEdgeStyle;rounded=0;orthogonalLoop=1;jettySize=auto;html=1;exitX=0;exitY=0.5;exitDx=0;exitDy=0;exitPerimeter=0;entryX=1;entryY=0.5;entryDx=0;entryDy=0;" parent="1" source="E3ElCluI1RF2q3SBLRe1-65" target="E3ElCluI1RF2q3SBLRe1-69" edge="1">
          <mxGeometry relative="1" as="geometry" />
        </mxCell>
        <mxCell id="E3ElCluI1RF2q3SBLRe1-65" value="Dados sobre&lt;br&gt;&lt;div&gt;349.519 notícias&lt;/div&gt;" style="shape=cylinder3;whiteSpace=wrap;html=1;boundedLbl=1;backgroundOutline=1;size=15;fillColor=#dae8fc;strokeColor=#6c8ebf;" parent="1" vertex="1">
          <mxGeometry x="539" y="249" width="111" height="71" as="geometry" />
        </mxCell>
        <mxCell id="E3ElCluI1RF2q3SBLRe1-69" value="Aplicação &lt;i&gt;web&lt;/i&gt; para&lt;div&gt;análise de tópicos e relações&lt;/div&gt;" style="whiteSpace=wrap;html=1;" parent="1" vertex="1">
          <mxGeometry x="300.52" y="244" width="170" height="40" as="geometry" />
        </mxCell>
        <mxCell id="E3ElCluI1RF2q3SBLRe1-71" value="Disponível para futuros trabalhos e investigação" style="whiteSpace=wrap;html=1;" parent="1" vertex="1">
          <mxGeometry x="300.52" y="284" width="170" height="40" as="geometry" />
        </mxCell>
        <mxCell id="E3ElCluI1RF2q3SBLRe1-89" value="&lt;span style=&quot;font-family: Helvetica; font-size: 11px; font-style: normal; font-variant-caps: normal; font-weight: 400; letter-spacing: normal; orphans: auto; text-align: center; text-indent: 0px; text-transform: none; white-space: nowrap; widows: auto; word-spacing: 0px; -webkit-text-stroke-width: 0px; background-color: light-dark(rgb(255, 255, 255), rgb(18, 18, 18)); text-decoration: none; caret-color: light-dark(rgb(0, 0, 0), rgb(237, 237, 237)); color: light-dark(rgb(0, 0, 0), rgb(237, 237, 237)); float: none; display: inline !important;&quot; data-mx-given-colors=&quot;{&amp;quot;caret-color&amp;quot;:&amp;quot;rgb(0, 0, 0)&amp;quot;,&amp;quot;color&amp;quot;:&amp;quot;rgb(0, 0, 0)&amp;quot;,&amp;quot;background-color&amp;quot;:&amp;quot;rgb(255, 255, 255)&amp;quot;}&quot;&gt;Validação&lt;/span&gt;&lt;div style=&quot;font-family: Helvetica; font-size: 11px; font-style: normal; font-variant-caps: normal; font-weight: 400; letter-spacing: normal; orphans: auto; text-align: center; text-indent: 0px; text-transform: none; white-space: nowrap; widows: auto; word-spacing: 0px; -webkit-text-stroke-width: 0px; background-color: light-dark(rgb(255, 255, 255), rgb(18, 18, 18)); text-decoration: none; caret-color: light-dark(rgb(0, 0, 0), rgb(237, 237, 237)); color: light-dark(rgb(0, 0, 0), rgb(237, 237, 237));&quot; data-mx-given-colors=&quot;{&amp;quot;caret-color&amp;quot;:&amp;quot;rgb(0, 0, 0)&amp;quot;,&amp;quot;color&amp;quot;:&amp;quot;rgb(0, 0, 0)&amp;quot;,&amp;quot;background-color&amp;quot;:&amp;quot;rgb(255, 255, 255)&amp;quot;}&quot;&gt;do conteúdo&lt;/div&gt;" style="edgeStyle=orthogonalEdgeStyle;rounded=0;orthogonalLoop=1;jettySize=auto;html=1;exitX=1;exitY=0.5;exitDx=0;exitDy=0;entryX=0;entryY=0.5;entryDx=0;entryDy=0;" parent="1" source="E3ElCluI1RF2q3SBLRe1-1" target="E3ElCluI1RF2q3SBLRe1-36" edge="1">
          <mxGeometry relative="1" as="geometry" />
        </mxCell>
        <mxCell id="E3ElCluI1RF2q3SBLRe1-1" value="" style="shape=image;verticalLabelPosition=bottom;labelBackgroundColor=default;verticalAlign=top;aspect=fixed;imageAspect=0;image=data:image/png,iVBORw0KGgoAAAANSUhEUgAABS4AAAFpCAYAAACSxLYVAAAACXBIWXMAABYlAAAWJQFJUiTwAAAgAElEQVR4nOy9TZIcR5qm+X4WqDWxaGnpHTEnIFZV1Z0sIuoEydkUMxOkEH2CxJwgkSco1gkSLS09i9k06wSFHJFeJ/IEw9wV2eguZlduOhHuOgv9+1RNzX8CEf4T/jyUoLubm6mpmQeJwBPvp5+FEAQAAAAAAAAAAABwSkzHngAAAAAAAAAAAABAD+ISAAAAAAAAAAAATg7EJQAAAAAAAAAAAJwciEsAAAAAAAAAAAA4ORCXAAAAAAAAAAAAcHIgLgEAAAAAAAAAAODkQFwCAAAAAAAAAADAyYG4BAAAAAAAAAAAgJMDcQkAAAAAAAAAAAAnB+ISAAAAAAAAAAAATg7EJQAAAAAAAAAAAJwciEsAAAAAAAAAAAA4ORCXAAAAAAAAAAAAcHIgLgEAAAAAAAAAAODkQFwCAAAAAAAAAADAyYG4BAAAAAAAAAAAgJMDcQkAAAAAAAAAAAAnB+ISAAAAAAAAAAAATg7EJQAAAAAAAAAAAJwciEsAAAAAAAAAAAA4ORCXAAAAAAAAAAAAcHIgLgEAAAAAAAAAAODkQFwCAAAAAAAAAADAyYG4BAAAAAAAAAAAgJMDcQkAAAAAAAAAAAAnB+ISAAAAAAAAAAAATg7EJQAAAAAAAAAAAJwciEsAAAAAAAAAAAA4ORCXAAAAAAAAAAAAcHIgLgEAAAAAAAAAAODkQFwCAAAAAAAAAADAyYG4BAAAAAAAAAAAgJMDcQkAAAAAAAAAAAAnx6NjT+Cu+Or63RNJT/7zm3/z5shTuRXPP3v3WNLTIH33f/+//+a7Y8/nLvm7n/zwVNJjSd/9P//t33535OmcBc+vv7+WgiS9/S9v/t2PR54OAAAAAAAAAJwIZvZE0pMtu30XQvjuvudy31gI4dhzuBO+un73o6SPJP1f//nNv/nm2PPZh+efvXsi6a3i/P8YpKcPRV7+3U9+eC3pa7fpH/6f//ZvXx5pOifP8+vvn0p6LYVP0qY/Svr8v7z5d2+ONikAAAAAAAAAOBnM7JWkX23Z7dchhFf3P5v75UGUin91/e5aUfpJMdl3brxSnf9Hkl4cbSZ3yEBaStIv/+4nP1wffjanz/Pr719J+p2kT9zmjyR9e5QJAQAAAAAAAAAckQchLiU9PfYEbsvzz949VSf37EhzuUv+7ic/vNBcWmauDzeT0+f59fdPn19//1bltyWzFPRHz6//+fqwswIAAAAAAAAAOC4PRVxeH3sCH8BZlbXvQpKWvzn2PM6B59ffv5T0Rm3KcoY9CJ0NAAAAAAAAALA7D6U5z1kmLp9/9u5a0rNjz+MuQVruxvPr759Ieq3Z59+mLRGWAAAAAAAAAHCpnH3iMnUT//jY87glr489gbsEabkbKWX5VlukNdISAAAAAAAAAC6Zh5C4PNe05Qudr3Cd8Xc/+eGpHmDZ+13y/PqHx4qy+qeb9kNYAgAAAAAAAAA8gMSlznB9y+efvXusByT5vvj0h6dmeqPaGR06nl//8Lmk77RRWs6a8gAAAAAAAAAAXCwkLo/DSz0QyffFpz88VWwu85GZFHBvDc+f/fBY1qcsTSNJSdISAAAAAAAAAKDyEMTlWTW3ef7ZuyeK4vLs+eLTH55IbdISeVl5/uy/X0v6Vg9EUgMAAAAAAADASfD42BM4FGctLr+6fneOactXegAi64tPf3isBSl36fLy+bP//ljxc/6lZClcGdQGKvOL0LwCAAAAAAAAAFjCzB5LenHseRyKsxaXOrP1LZ9/9u6ppK+PPY8PJUnLN5I+OfJUTo7nn727TqXhXeOlZHMxlAAAAAAAAAANZna9z/4hhDf3NI/HutslCb8LIXy34XxPtV968ol2D8Q92fe+LnFf93sXzl1cnlvi8uwb8uwqLWvq8nJM3fPP3r2S9KulNSzH8tK/uOCYKgAAAAAAAFwUZva54lJ6t1kC8E5lg5m9SHO564DWrxVF4xLf6P6WQPxadxeeO5rcOXdxeX3sCezK88/eXevM1uNc4I12+Q/5gqRlStK+lvRJvOT9BKTNniEwAQAAAAAA4OFiZq91AhWpKWH5rR6Gr3mQTMeewG356vrdY83KcU+a18eewIfyxac/vNYev324BG35/G/+xytJv1O+L1uFre3gJc19AQAAAAAAADwcTkxavhHS8qQ558Tl9bEnsCvPP3v3QuclWWckaXn0/7GcCs//5n88kfStbEnkbkpP7rPeJfISAAAAAAAAHgYnKC3p3XHinG3iUmeyvuXzz9491pmvbbm3tHSpw4eo3X7xN//jpaS3kj7ZKWG5YfvO9+ch3kgAAAAAAAC4GJCWcBtIXN4/L7Vbt6eT5ItPf3ilE/gfyynwi0//55PUMbzGyD9EKIYPPB4AAAAAAADgDEBawm0558Tlya9B8Pyzd08UxeVZ8sWnP7yQ9Ku9DhokEB+Cm/vFp//zhWLK8plktQC8PHFXGdRViI/vgNlDuDMAAAAAAAAAyyAt4UM4y8TlV9fvzqJMXLHl/VmmLZO0/M2x53FsfvHpvzyWwmtJP73LcdtO4lu69eA3AQAAAAAA4AwZSMvfKsrDQ89jJC1/L+nHez71d1vef3vLcZ9oey+VP+xw/pPnLMWlzqBM/Pln757qBH6jcBs+TFoupAu1QzPtE+MXn/7L55JeS/bR4uxt9CLUB/PvdWOU98/x7gAAAAAAAACMSaLwW82rZd+EEF4dYS5vNE9avgwhvDnkXHpCCLeq0jWzV9peIfv60Pf6PjhXcXkOicuzbMjzxac/XOu20vKBuLef/+RfHpv0WuZTlr1cNAUF2bZ1KgfysnkJAAAAAAAA8IA4pZLsU5oL3I5zXePy+tgT2MTzz95d6wzW4Oz54tMfnir+RuQWmLaZOCuPp2vsfv6TH68Vo9qD0vDBvIeXYhve79bC3DwQchMAAAAAAADOjdc6AVGItHwYnF3i8qvrd4+1vY7/2Lw+9gT2JUnLN7rVmpxWH7Yu13iaJu7n/+HHx5JeyfTLndOUMoUQNO6xk25GN4b595aOAQAAAAAAADhDzOyl7rhHxAfwSkjLs+fsxKVOP235QqcvVhu++PT7p5K90d7Scl8JebLS8lpRNrvPLcnLrUfvLht3u3rkJQAAAAAAAJwtt1qz8a4xsyeSfnnkacAdcI6l4ie7vuXzz9491pmtbfmzv/k+L5i7h7TcXhY+Pub0+Pl/+OMryf5JA9k8TIeG0XUsXduma97hfpzmLQMAAAAAAACYYWbXOp0g1+fHngDcDSQu75aXulWp9XFI0vKNme32P5Zg27OAw8Dg6Rm4n//7Pz5VbMCTYuMLScdgijXjnrqvKT21zUnJ/Xqtt+c8vbsHAAAAAAAAMOOUgmbXx54A3A3nmLg8yaY3zz9790RdJNpMC+sfHp8sLbXzeg91dcb9Lun0bsDP//3/eiXZ7zS7dhs8m7+qW/vtC2nMPSu/swy9Ta4VAAAAAAAA4Eg8PvYEHKc0F/gAzipx+dX1u1Oy9z2v5NKWXliaSeGEli3cX1rO2b4S4+kpt5/99f96YqZvtfG687yXU5Y1Ybl0/IZjR6cabLJTNd4AAAAAAAAAAAfi3BKX18eewIjnn717Kunr/HrknE4sffla8iXS21gudB5uPaELzfzsr//1paS3aqSlzdesDO69DduWspkjNt+OwUind/sAAAAAAAAAAA7OWSUudVrrJXhKQ55tzi6/f6wE5s/+5vvXkn56V+PVfOJp2raf/fW/PlEUtc+W05Qtc5UYune3fXjdGphbjjM6iQMAAAAAAAAAzDi3xOXJicvnn727Vlp3c5+g4TESmD/77PvXcsnQ3dgtkXmK2vJnf/2vLxRTllvWRV1KXbr3g3+1R0p1S8PxmSQ9xRsJAAAAAAAAAHAEziZx+dX1u8f6gDUZ75HX0u0lZJ/AvC+ZWaTlXuG+/crIm6GPGCL82V//6bHi5/LT5TUnpXmSUtrWN71cbdNtPInNrvu4zbanudi24nvSlwAAAAAAAAAA55S4PMW05QtJH9/FWPeZwPz5Z9+/MOnr0qX6NospDl3a/Phjd8L+4q/+9Lmk71Sk5b5suIJREnPj6/kmsw15zeZzIXoJAAAAAAAAZ8WLY08AHh5nk7jUiTXmef7Zu8eSvjm1juE9P//s+xeSfuO37RaG3CbONr9/6MDlF3/lU5aj2UiLycswSEE2icq4bxTLu12VzV5tWQV0+CZrXwIAAAAAAMBpY2ZPFHt/3EmwC8CDuLw9L830kXSSTbQljaVlps/99UXOm9ntgg8ldb/4qz9dK0rLu/uf5MZY5KZmPZskaRg833UiCEwAAAAAAAC4f8zsPv8C+isz+9WHDhJCOFETA3fNOYnLkykV//LZuydmennseWxik7Qs8cKm4UzL8v+l9isvv8+2PSll+UrSL5vThiWZvCQMraQu6yBKgyzsv0Fe2nCf/jzuff53CwAAAAAAAAAw4yzE5VfX755KMd14IrzSac2n4eefff9UMaY9YLc0Ze/wdjv2cGxKWS4lYDf90mh2zN6h06UmQKHd3cbvbz/t6dx7AAAAAAAAAIBDcC7NeU4pbflU0tfHnscSSVq+0VCs3q4E/FbKLNz6yK188Vd/eiXpn7RnafhikrztWDTeZZdIatjlivvVL/0/AAAAAAAAAACQOYvEpU5rfcuFJOPxuQ9pWd+13VdZvCdp+cVf/umpYsryk6Xhb7XeaFA73S2pyHqiMN/UHbppOuOe7P3ExnsCAAAAAAAAADx0SFzuwZfP3l1LenbseYz4+WffP9GtpKVteX9P7k9avpL0O9kdS0tpqY6722F7F/XZPov3Ytd05R1/NgAAAAAAAAAAZ8TJJy6/un73WNInx55H4vWxJzDi5599/1jSt9pXWu7a3Dost5tp99tyvr26aUe++Ms/PVG87xuF8d11dh806tm0r8Ks+Hu2rmXXGXwoOekaDgAAAAAAAADQcA6Jy1NJW77QnmsqHoJfPPv+sZnemI3k7haJuLTmY3P8XMt9GLunCL/4yz+9lPRWh0657lVVPyr4Xk5Ubm6+M7rfRu4SAAAAAAAAAC6ScxCX18eewJfP3j3WCa5t+Ytn//xYsTz8E6lPHe6gujbusqcq2yltuTtf/OWfXkv6e/kU6V2XiDs29fau429flXLTO7u33+klJuoSAAAAAAAADkMIwW7zJenXOwz/69uO350LLgTE5W681LAM+9jYG3Vl9LZDh+y9JNioL81wnzuXlm3n9juSlkv/f5u7yQ2Zydk9WRKL82LxuYy0RlP2XwAAAAAAAAAAl8o5iMujlop/+ezdE0VxeVL84tk/v9bC2p+bZd7+5eEbuXtp+VK9tDwAYfZkE+NVKseZyvG2/O/2GaoSAAAAAAAAACBz0s15vrp+91THTzq+OoE5NCRpuVHuZXkZGhE3EGNNv5zdxVnbbuZu+OIv//RY8X6PT9ZvvpXnC7H3zk6LUJrMdomcxm2zzebF5KZi9N3eAQAAAAAAAAC4JE5aXOr4acunOmD6bxcR94tn//yN9piTWS8vF/ecb9p43FLqcMuYm6kl+dn13Zm0DONjrHnY+RybxePoxlWTPBt3w3UCAAAAAAAAAFwqpy4ur498/ntvyLOPgPvF9T9fS/plOnJpxPE5Bms7Vr22jzW7R8Nm4UVzjvuWlnm82ZNdit9bQbl5hUu3zZbEJgAAAAAAAAAAeE5dXB4tcfnls3fXkp7dx9gf0AX75WKg7zbzcP/WxmFvM+H91r384q/+9Ymkj9uZ3IUk3SAtbT9pOe97tJyujOfsysOXGv8M9k2jSKNSdQAAAAAAAADYxI/HngDcDafenGfYfOZAtGlLi+Jpl68R297fxvPrf35s0k99T+q9GB4w6pCdKE137l9aJp6MJ7Ek/7YRZLZj0nLvN3fdcZ/71/YTry19qCEHAAAAAAAA2JM3x57APfPm2BM4FCcrLr+6fnd9rHN/+ezdC3lpuqc7yrLsQ2VlN+rTIrXMxs1gNmUFlwRllzQsX7cyo9tE3S1vhEWBaZZF5lxotmwWltIGwby0/7Y5bj5bKhHfbeCS7GwSmghMAAAAAAAAgB359tgTuGfeHnsCh+JkxaWOtL7ll8/e1c7Wzhftq43uRlY2zMvmbTddmPcdblj0f7bDNe989u37WOhDh+VrWaT2IjMLzg2nGYnk/jN2r2f+cDjmvqnK+XjNuXCUAAAAAAAAALcmhPCdpH849jzuixDCj5L+07HncQhOWVwea33Ll5I+PpY82pDQfLz1WM014niobRdnzbPbjXGbfbuy8D3PouV7F98evXdLMT0fs852u8eMCcyh9h0mMDGZAAAAAAAAAHvyStLvjz2Je+SVpD8eexL3zSmLy+tDn/DLZ+8ey1IDHMchtNGtS8rndcVqt+yrvbZpyuXU4D7jLZNSkwtpyk2n2VikvkloDl7slCEdSUYbfBb999NiCXgbNc3/7DofAAAAAAAAAIikVOK1Hqi8TKnS6yNP4945SXH51fW7J5I+OviJTd8c47y7CMuxlnS11DscP1Rgexgx3zJmnzPuy85HNZHFsdTcKIQXbt1w976se+Bul9Txduaf4/xI1CUAAAAAAADAPlyAvHwr6T8eex73yaNjT2CB60Of8MsoS7/ut9+nLto3YdmLx9C/ualfTTOG23U2yKajFsbYsO8+LB7ZvLHprKF5tTmCOXh7Bwfcv99Iy5ETts13qx8IPQkAAAAAAABwd4QQfjSza8VO3J+4t74xsx/v+fSvQwiv7/MEIYTXZvZY0t93b71I130X57iTcW7DqYrLY6xv+fqQJ7td1+7lLSFv2Cgi24Lv+YqSu523fyds2W+XMWPH8DtIaJb05cJY6cJvm7T0T7Z40YXFKwcCc7fQLAAAAAAAAADcggV5+cniAXfHmwOcQyGEb8zsqdpA3sfp66w5yVJxHThx+eX1u2tJz/rt9yGTbr2W5bZxNU79bTumf7a0x6ZRbt1Ve8bSupZLa12GsRscved3G65NuTyl0axHac3F91TLy/s1MA1pCQAAAAAAAHDvXEDZ+AtJ/3jsedw1pyouD2G9Pd8c4iT3ISxn59hn5+DbvwxG2jjY7dewXJjMLfcPkqUvRy0dD83GYXn4pjUwR5Jzw4Y+lbmMdc+Xv2wvOQwAAAAAAAAAIx66vJT0Qg/s2k5OXH4V048H48vrdy80EKU7Zwht969d+VBHZcPo5ebXVUPuIiRHpd7b9t8yZinx3rGLeD7nbP3LQdKyiE33lY5dKg83y53N/bbl69x0hUvrX446kM/32bgLAAAAAAAAAOzBQ5aX7tr+cOSp3BknJy51wDLxL6/fPZb0avTeLvm/eyn5voUYGyf1uvd3CjTaDopxwyy2LRK5kTC+DAvjr21NenICczEN2YnJvN003L54FQspzsFTf4qxyNyyDwAAAAAAAAB8OBcgLz+X9Mdjz+UuOEVxecjGPC+1sFDpMZzRLqlFG9q98d7NMxu/68fetMduSczlWezG9qRluepNQxcDGNpN7hLq4a3g3FValiTtlnkOz2mD/cq4o88rK2UAAAAAAAAAuAucvHxw60KGEN7qgSQvT1FcXh/iJClt+XL03qEV0d6l5DvuNZZd20rIR+/sPrla/rzfXYyl2V7HhuFX3Lkv/XaznJ12Q+m5T3Wqk5ZLpeRbLm0kM5tDhgnQrg7d2juBtAQAAAAAAAC4e0IIP4YQPpf0f+qBCcwkL59K+rXOWGA+OvYEPF9dv3si6aMDne6bDznX3axD+QHHp8d5NnGhLDz4o25zprvab4ksIzeJ1YF4TNttwxzaex2iCJwJxG2l5fPZbD6P5uJzlrwc51oBAAAAAAAA4HCEEL6V9K0kmdlTSY/vaOjv7micW5FSpa/Sl8zs+ojTuRUnJS51oLTl82fvnpjp60Oca8Rdro3pBablzKCp8XCh2TMfsG0S+0yyKzM3KezbJHzRxPbdwsPCvtZt2BSLHOw3K83ePkyz/yDuuTHvuqMMBQAAAAAAAIDDkZKKD5IQwptjz2FfTk1cHmp9y9cHOk/D3TbzaUVdU07cCb1e6W0fd9953AVd4jG/HEUWhy/7tGaIIU43wOj+VxE6KIzfQS72aU7Jticvt4wJAAAAAAAAAACnJy6v7/sEz5+9u5b07EPG2FdA3p2w3L4+5TBhGeaac7fx95lL9+5tUpeSyuyHwrJPSobh+0Xi2uiYfqL9eXcs3x6Uge98Vzfsu8RoXgAAAAAAAAAAD5lTE5efHOAcLw5wjsLdSc4PXWsyi779sn9jAbnbXPpjNzWZMQsKqXzdZmtd9oIyJiVDqMKyXePSl5PbTE7myY1n055rKfC5LC3DhrH7fbu3kJMAAAAAAAAAAIWTEZdfXb+7vu9zPH/27ol0uLUtD++hZvquTiS4NTC7/W9zjt333nX/kJpph8X1N61LTy4LznruYKGdQwljhn5DN1Nfuj4oI28PHb/Om5PAHZaqIysBAAAAAAAAAIacjLjUYRrzfC59mFDc9di7Lidf7F3TvLuwPbRbhs16Np55Kam5y+Hp2G1l46WsOySJGA+IqcrBupF5wK4SvFe3Fkw1gdmlKNM5m62W2xz157KZoJyPlR+Cn0zcbm6/bu3NbeA2AQAAAAAAAOASOSVxee+NeSyXiW/wcHfhiPYRTbvvOy9dDnu03GlH6pOXm8/54Xela4AzOrl5nepW4/TrVCaJOT9uLBrdgGV7ncZoHHf+tE9TAt4d46XlxiRmv1+5pu33FWkJAAAAAAAAAJfKxYjLL2OZ+L2voXlficzhGDPNV9/J/15qyNO+Nx793hiVTPddxUtK00vI4Pa1VH7tr6QvG7eyyOY84Rhm/tI64zgrJ/fJy9HtacZq5el8d1d+XqdZXgMAAAAAAAAAXDonIS6/un73RNLH93ya6+bVB1Q/j7grYbl/N+6ulHtrIx2/XuMos3mf1mxT1LVrqFNKxnvFmsdIa2LWhTyb8bPSDTbQu2atlDR1+/TrZ/p1MgfJy1HpuHsxSl62YyIrAQAAAAAAAAB6TkJc6gBl4tphDc3buqNdZOQ+Y4z3Xx5kU9Mdr9vmcnOuBe+fBXlpC6lLrbv964yTvizjjgq5bd6DR77r+DxVqSQt+63tPEOwsbBckpizOaR57FQujtUEAAAAAAAAgMvjVMTl9QHO8cFydNwVev9jbrWPez5qrlPKp4cm8hiC0p09+9LgxOFsn9SYp5mpS1fGveI2L14tv+4Tka0EnZd39812XAKyrJvppWZojvKJzOH3RZ7LLaUjshIAAAAAAAAALp1TEZeHSFxuXN/yPjTRXUnLtGfzbLHEO3Svdxz5PqRmf23m3eKMoLZBzvztOlD+VxiEFts1L2M6cj4ZG3Ya7xsELZSKm9UxwiDn2Wzqy9eXLtCPgbQEAAAAAACA42Bmr2556PUu+3zA+IUQwsYxzOyFpCcfeh6IbLvf98mpiMtn9zn4l8/ejcXoB65zuUk6foi03Hxskz101MYxod/sj5m/qcWbkO5P09l7A3nsrdc+SihO69l820nUOfir9EXjkknBJydjmXkVpqOEpEtz5u0lTek7lnsB2TcMWk5eNlez6fuleXXHC7ACAAAAAAAA7M6v7nHsZ7obB/Rqy/sv7ug8EHl1rBMfXVx+df3u+gCneXyAcxRagTUXULuKwO6o4Zbl1Rh3EV8bUpy3cGd3Ut1cSsbzrHyZtjS7agtSmLpD2hLvKGxzw506Ujvn0L3eIXnpty9cfP2sN73fnxMAAAAAAAAAAI4uLnWYMvGN4vK2sijsuYRhW0Y8r5vePtY2edmlLgdudFNZeElkZl+485F3QNMQx98bX449mkPalgOQ/bxTgnNjwx3ZQCD2Sc/lAu7R9qWS8flnPCglBwAAAAAAAACAkxCX1wc4x7Ic3SFZuE9J92Lyrvyr29aVQS/OoVmFcXmvZn/rS8N73JvBmrLw8WH3Jy+9WJydM78XvOSrcrNoRes6kA8+26aYPl/zUB6bWqnYNw5KzXssPQtLYrJPdY7l8+Kla9tnCAAAAAAAAADwMDkFcXmIxOWt+dDy52Vh2W+fJzBHo23IHGomxvodQ7+/1e3dXMyNeBAa6ZjXq/TCsJ9jv7ZkKJurEA7t7s351K59ubg+ZXtzegmZz10/mdG+S2P3T4Yv76YEHwAAAAAAAADgzDiquPzq+t0TSR8fcw6b2Lf5Tp+2HEnL9s3xGxsym+XZUF6G+ZHNvu7F5rLwheMXz34H5I7is+7hS+dOz0N3Z2bJzfkx1m03S8rRfWCtsPRist+nnjcnL0epW0vpV3NdySujcnEa9AAAAAAAAADAZXPsxOVJpy33wcuqrUm6LaJw9H6vC/vXUYrZYpF33GnTiMtn3CULuitLJeE2rdNall3q0jMzsH1pdisbpaXR5gLT5GVkTnjmMQYl4rO0ZxonG8rmfc2eN9c+3ty8icIEAAAAAAAAgEsDcbnAPmlL65TYxtLfTfJqs8H6cZO8tPJiS+rSb7e0NuOOVqxVmftpzOU1LPPYSbnaXDEuH5TKy4MkTXGbS5T6BGbpPq7ufb92ZWiPqZ/sYK1L8+Kz7lMTlZsSk647eVd63lweqUsAAAAAAAA4PH977AncAS+1pVEznAfHFpfXRz7/kP3WFFxeHzG9O3wxrILezNu820he5rTloqRMj3vqxtkRvnh6l9Ga9SelQSl33r6WaRq/lzuLW05Zdk14JIWwjjLQxrIvloOv/YiSgiY9UpWGrXD0ncWHpeOWn6s7Nq/RudywZza/PbYCAAAAAAAA3BchhDfHnsOHEkJ4e+w5wN1wbHH55MjnHxJGyxAm2u2tlPKpySUxuU1YLquqvtB56Z0s2XYTmF1l885s0pZtA5vhRAcHBbd/LwDjg7kkZCMHbWldUDefYOn4KCjj/lMZJyc+5012XDpSfv3KUNfEDO2cyxgbk5d+XH8PNl8LANs6v9oAACAASURBVAAAAAAAAMClcGxxebKNebbTCqYPkZa7lZJHCRa63UYCMxSBNpKLm97bj35Nzfl6k+1po1Adl6abBclWCsE6eZgF4LoO1InNXJ4dZqXgcinNXCruSsI7yVjLwn0ped7Wlo03cnYmTufJy1HDntlcUZYAAAAAAAAAAIWjicuvrt+d3VoD1T0tmcj+gA27jSrMt3qrtk2MP8RnLIuazJXTbucws5VR6o1Tl7uWgi8cN0peLl2jheHbUTguHNjN2ZRLyHNEc93p5bzeZW5m1A1mU1P2bapNj3wJuiX5ulQiPmxsPlzDcnxZ+d3B3gAAAAAAAAAAF8MxE5cn05hnU2n4nDaLt/h8JCaXtvfl5sPDarpxlJasqi2/DgNJmaXdrqnLLXvMDF0vLFVn1ey7acwoH2tFtnUl16EOseEza9fBDOX+WXm/JjDrJ5o7m9fvB9/0KAvLViqO05+z+RZrvHnNy8XPH28JAAAAAAAAABfGsUvFT5ZeZpb1DMuG7oAdxNJQPu0Y3oz7mNdgcZ75zdCLSJekLEcsC8PxWpd7Ssvm9owa8ozLxCXJrm6KNKzzTUnHst3q8/LQlZSHqZlbO2Jzd6IkDab5nXXrVZqLrc4EZt2/yUfOAqajD7kvEF+6MWQtAQAAAAAAAOAyQVwusNicR7dbG3JJWi6lMrefuc1Yhtg2W21jHt9Wpp1LFpo+e7lzo55RerIRif46RmXiozuYyq+LqHQTSdeWdqiDzUrIg5Ya3MQRQzOleal2vcdDL92I2dFNyiXqbu3M/Bj6pKUTst1QiEoAAAAAAAAAAMTlkF4ybnrthdZSmfhIWs627ZSs61dsdKIttMqtbZvTCkq/ZW92kZa9oNyhTNxyV3HLyclO/BV52TW+kdsW8jiDJj15ftktNttrMbnfMkpTlhLzhVu3WOo9tRIzjrV0VPt6U2MfAAAAAAAAAICHCuKyY6sjWqgWX3q+0/g7lgNngRVC14Qnbp2XiksK1Wi22nKWuuy2z0rBpaGtW5x46B63HJPXpCwCs5OXvadU6hQu1f2s2cE9T3dqCtJ6kqfmN9uoaZ+YrO+bZGuZWVorNB/VC1W35mWfz2zErt+31coAAAAAAAAAAJcM4lLVd21KRpqzi72E2pSuNJvvs7Tv0ra4ffxGkV3eRHpuU9c+PE/ohJvmr8u2Ki1tVps9npRNQSGEJCO9AOxSlVluhu69aGnLtsVS7ynUJjmNqPTPvP7t5lH8aOjOZItLeM4+uu7yvfhsJWg/NwAAAAAAAACAywFxucColHv0equ0HBy6ZKI2d5t2Qs2spC7zcFleWi8vfYW1Wi3Xpi5d1/K0fe8K5SVp2cjIpWPXqRFObZgTD8m13f5CvNRb13TmtJbCVdrHdwz31xvmn5Mb02ytEKZ4H/t0rV92s9jolBQNmt2w+qpb89LaaxjejsEzAAAAAAAAAIBLAnG5JyW5N3xjsNna95ck5uK4bpyS8fNLPirJuPzcsiJzK166aut8fCMv0z55Dq3c62OES+tYtvtUaZlPlITksAQ9vV/Kv/u0pc1fN0164g0xk8J6nSTh2h0TyrVZLknvptxcbpaoZXy/k5eQeWNubJTHzTc8DJKyaTXN0L5u70UdI362TcsjAAAAAAAAAICLAHH5AZh7Mgtkes/W7+9e2NLrLecr+szJsSwwzdnIUEqrVTOVPsyYxg1FKIYi6NpwY18O7rZZ936zX05cyknLQan4rDlPn7TMx+XrSaXeORpqa0lTXfdSIa1DOVXdmYKZs88quC3+xjQfSqj7+s7lrg17kaJZYE5uzn2Tn1FzoSJ86zXXsnSSlwAAAAAAAABwWSAudyCLQZ+K3CgYu0BgLydnxy/s0+6SU3c1STlTX745Te/csuwMtdu4d4LlyFDH3paqbE9Qt9d1Lefb/TW0F7guQnDo9LzUKyfOYjO/t46JU+tkYkjaz4LMuo7jTfm3ihRVqBMwfzMsieLQmMXW63Yf7kyUyg3v5+L3z8MurJsJAAAAAAAAAPDQQVxuYds6j0vrWi7uP3ixTVrm96JoqwLT0gmDlNZkjEKtX1Gyerbg0paulLwUlru0paSm2c9i8nJBWjYpy+CSg0vXF2pisXQUz++5dSSLsAwpKZlvTE459qXg+b6kNS+n0E7Z2sso0tOUOpBbc+2lTNx90PGQ7q7nXXzEVXUoWxSdobn2vdcZBQAAAAAAAAB4ICAuBwy7fZd/Ofm0lI5cSFs2gcFt51qcnNNyoRSDl4FiKXQsCrfq0JLom69tWZObIaX7Qn09SliWCY7KvdP2zs61ncXHqzXalBKXzRKX6yonxzFMtUlMU1hbN738oa1daXnzThouJykt3eMQm/3Il5vHeTRrXJapuPdclXt3Sjfn9Bl11zT7HgmzJwAAAAAAAAAAF8FFiMtbdcju2SEdualEvBdSQ4m5MG7cHMVYaDcW8RUTlG59R3WhxWAK5pr4hHq+6AtjiXUjM8PsjMvSclqXc6cTutdt+nJ8ges470kpHVlOpmoCcxoxSUJvXzWleazi8ckaVvFpKdE5pSRlHTqLTzPXoVwm2ZTeT93KQz8PVckptdvKPlGsmvLhVVXmROismLxU4QcFIpcAAAAAAAAAcKFchLjcRPZCw+RjLyt3GGefc5bXu5wky7UYs2yrnRubmvKSqVFPFwhsEpdSEpNeRgb33Ec2F4RlSTzmkvB8wFLKcjGtuVZTXp7lYtMIxx+fpOCkJAhdmfnaXXkjInP8MZfJh/K+lXikqmhuopIr1ZJzle0lidnJ8aGYznMvQtNmt2ImuAlaAgAAAAAAAMCFcjHi8oNSl/1xLk3ZjLlD2rKRW824NtjW7dusl1jXqExBvqrzso8rojOVJQ+CfTlVWfKcPpKZ95rNKcREoXWv1R8zfm0jGzet6/Zg0lWoa0w2NjFJQn9Dy71JT61b57KkInPSsujbKhzTMXFcl8gsN8rKDTNN88p5Hw5tFri0mtTM5eBTaARo+czaE85SswAAAAAAAAAAl8TFiEtpLi9HactNcnNjMtIGb20aa3CiXc9dtFa6oLIuZfA7q+wcnNtry7/DbN8ylhOhUlDIKcGpPbYmLNftQGUeLt2Ytw3EZZu4TCXeV0lArq9UZ5OtbLu2ZU1WTjMxWqWlE7R5eyndntpEp7sJzRqdkmK6c+o+3lD788iaUnEvMb3fbJx3OkdfNk7iEgAAAAAAAAAulYsSlz2bUpg7pTP70uD0pElY+uflsR64qUS93VaVW/FoU9oWctIw7dzUkfvXFgXjUIaNy8Bzw5xRotLy47Saj9MnLssUesmZmNZpLcleRAbZVVAo6cuk/wZJy8haYcqpTNUkZUjy0tLzcJW2pzklGdmO5e9JkFlNWuYO6CFMSS5Wc12/F6qenKcpW3XZu9HyUfZjAgAAAAAAAABcCBcnLkMRT3NBuLNETP9qHvvnbj8/jpntfJ7+/VAEnErQMMYpaxqxlokX5+ia7tRS7ZBShXl7SAlGXzYe55/kZZN4zHNw+0gaS8v2eZOsbK5vHSWjuYY6ZSFOkzWl41UcztewtCo2m/xikqBlRrHLeDxFV0JenGIuH0/nLd87df6Ty6/OPvsuX9nclhyY9Sf0krLcytHoAAAAAAAAAAAPn4sTl9KOacr+mPKv9vVQWo5Sl2qTlpvmsSg2Q/9mUCjrQoayX01ghlQgvXRRwa3JWMeo1mydnufzrIso9cKyTWPW7c1YZTz32MxlHTuTh1ZYSq5xjrnS8SJrTbM1KW2VBKZPaY7Kx9PbIa+JOXX7VPFoRRC7jyDfCx93LUlPuaSqtcY8jyl/nZ2abNKaSEsAAAAAAAAAuDwuUlx+CL3AVP/axtuytOzX1dxVouaEaCgpyflal3VBy1TCnZvylFGShFRI4i6mJ0PI62T6tGVNWgar++cEZ5xUHqNb37K5Ji9B4+tRcx6bauKypCa7YfL1a0qicVBaXW7MFMrNsnL+KCf9awuTu5n1/lnZ2F1H+jBqiblLVbqXJktzKAazzrGEKN3n1V0va1sCAAAAAAAAwKVzceJyF1E4lIoDWTlLVQ6OM//GpvG3zi+Lz9B6NrmUpanKxKAiHH2ZeMarMrO11jl0KTd+2SEnKkOUhn3qsk9YdobOnLSMGxYSl0Uu+i/XNCfk0u4wO7aUi6cycSsJ0ik190nTSnHUepvXUkhrX2YJGyZVEWnVKwa55kQqG1tp6hOe7pukO8zStrKGZS8qm7TuXGwCAAAAAAAAADx0LkJc+iY8mxryLGHdC+vemAnM/HZ6Y1v38p1kqntW5GIzl2i+yrqJe1xjkDRZiBXTTjaGlLosaUsLMuW1JdO+5hKYs045gzSmFJOI/fXlxGUuFQ+pRLws2hkTjKapNuqxqVnfMsrA/Fo1tTk5gWnt9HJStVyXl7JN6jLU++oFapBmg3rrW0rx64i+bHzUCT7u09jVDfX+AAAAAAAAAAAPk4sQl56lUu2NJdz9NueUNqcu59Jycsso7tIcyM/BLY/YUJu81PPPM3rzMvGmZFxBugrSOonRLm0ZfIn3tHaCtJaU+7nWkvAkVL0A3JS4zJLSLCUf0zmClfFyWlFK+zfCMj5aSWy6su/JrZFZyrdTU6Lgy79VBaaTm8pP3bXWRKS/6U4zlzUu3efgJWb6FKr3zEnNUL6H5OcFAAAAAAAAAHAhXJy4vC0zodk97iItN6Ust6Uuq/Bs042xG3iVg21peHremM0xxblNtSGPzaSlS15mmTitFiacx4mjF8FnGko4s5VbE3JKZdmrrgR8LWmSXb1XWF+l/ZywDG79yjAl8ZhvXJaFlnrwZNmpeB1OKManXfl7KcVP+6bjmlBmTmNOUQA35y3Sef7B+1MNvw9s68cHAAAAAAAAAPDgQFxuYZNQLEKy/Ov20nJb6Xi/LYvGvmHPeKJtwjJkMdk/D7k0vDuml5ZKUtJsnAS0tdvel5EvJC6vVmmXqRWWZkliKr4u3dODSuLSlYfXZGYcq0jYLD7T+pVZvJb1LCXNO49bOb6+bnZo05Dl3Bar2IM7rsjN0I7Tf3DBNn7PAQAAAAAAAABcCojLRFlKsQTv5vZosanOjtJySVDu0ml82JTGrSkZxWO7vSYv2yNK+M8FMUtFdFnrMo2bOgCFpvw7HWPrMn7xcpalpt9apWV8nItLU0iJS6mbVUpJ1qZA8dHX3OdTrKtMDW4aFt8r6cuyce2eVoFZdgm1nDyeI7gbFV9bea7yOeQN8XzVbjcfqxOZPoVplr8R+/sDAAAAAAAAAHBZXIS49CKwF5T5sZWFtnh8v6193Cwtl45d2rZtDumK3E7J1m1ZDrGEBH0Q0KUr7SomL0OWoSUlWbcrS8skDUuJtp9HM79cJr7SrFxakl3dxL3WcTaW0pNK0tI0deO8l8JVl8yMz02Tm0OIZeg5WWkhCkc3dwWlcKbrIF7Wx0zXEybltkiW73Fe+7Ick29qylROIcnhKjrz91YVwE7Glnf9k41ZWgAAAAAAAACAB8tFiMvdsUZibirZXRKgG0efCdL2PJsTl92ai+7ZLABq0jrLuT4RWaqondjTOpU1h2a7FOJ6ja6k3K+pGcXnOq0Z6WRlLy5d2bhNgzJxSUrl4Xa1ltaP6oUEi8eEVC+eE5k2SWsnH/Pmsv7kJGkd5+8Tje2d6hKpa3eOdSovt5icNHd8cB9kUEpdOtHpk5te0pq5IKqfST62TZoCAAAAAAAAAFwyFyculyVhFUWbZORyonKctlySkfuUibfb+yRjnHBWXcHtbyatS9l3WscyrVHZr3NZ1rF0ScV+bcx+W1kP05Wst8eqG1MxcTm8vnW5yKCVJIvSzxSTnJbWpsypxfLhtGnLHGCs85lSWjOnLddRNIY8RpC0TnOYFNbdZ1FubLvWZ7lsl7os45Y5WF1mM31OeY6lDD7kezT+4NGXAAAAYGZPJD1NX0/S14jv3NfbEMLbe54aAAAAwL1yceJyzqBseYNEHMvMzc14RvvFEub5MbuUiu+Sx5uyl5uiFAxapzUww8Yvm9Yuozn4svZ10LrdtiQvs+hcTFyuSxKxpC4tJ03TxUiKkjGmKXV1I62vVOSlb3tjIQrL4OZW1qRM3clT2bhS6btC9qNX6SbnlOdaZnmsdbzG9VVNYQaV9TlH3cjzjs16mE2E08oSmohKAAAAkIqsfCnpc0kf73jYs26MP0h6I+kbJCYAAACcIxcuLvfXRPN1KW323lhIpjL0cshYYu5y3iuT1sHlK81kOXWZxKFPVEZZmJrbbJKWdpOkaE5mtmlL35V8mlZRWgZTbbazLCzrda7rvJvrW9ebE6SQO4tPqRN4XmcyN65JQjEa2lyqneRlWdMyl2C7efTrW+bPI61hmQVmPH6KCc9yzpSSVKjzSoPU74V6baUMPXczz8LSJy6lYsNLp/MR81sGAAAAD5AkLF9J+voOhvs4jfO1mf1W0ksEJgAAAJwTFycuaxm4zWThLutP9mNNU5uU3CgtG3Hp97MiHDfPYyDF4kyiTLSagzSfjswl3dNKWvcycl0FZVnfMp9rKZW5SrIyy9CauqxpTWledp7mMKLIz1RqvTZpyus+upRlFn85Trqeii8sacckOi24dGfepzy3KjT9V26S05SJp9OGemxdjjLMPlQrEjUfZ9nH1tJ6v+6mLycv4/b3Z3zbAAAA4OFgZp9Lei3po3sY/pmk35nZfwwhvL6H8QEAAADunIsTl5FWWm4SlsOj03vTNB5nMWkZT914rua5WXP80nyieGzfC0FFQvp0pBSa5jl2tdY65NdreWlnfi3KRji6r2klKZaem62ldU5cZkG6VgjmjlMzhtm4VNymuK5lSSVeJUkZJpd4TInK/DxIunqfyrZdKnMkW8v15vvsRGnwc613uTyYXPIyJzeTKM0iM+0cn2XRmqVlEtLu+krZeDmBuxmhew0AAAAPHjN7Iek3BzjVb8xMyEsAAAA4By5UXC6zi7CMz21h+8I4XeKySfT54xbPXbOMdZ++qY7Dv2yEpDRNa8UwYp+kXE5cNuXh6bwhlUyHcv5Yam0KRV7WMu005jQuFa/Hy4nAJP2CubUuq6CMj1fx0d7HNS39kP5JkGKjHn+vvMB0n0GQcldy5XUyXbemPBWzdTx/+WAsJTmtXkcuLw8afEbtcgFFonqbPbhVAAAA8LAws6eSvjngKX9jZj+GEL494DkBAAAA9ubixOVS0nLXMvF+XUu/falpzyhxGUu33b7+vdFclIN41WTl0KGXmb5MvC0ZVyMwY/KyrlnZJi7n8tJS0jKnK3Pi0hRqgrMkL7O8zBOrctVstWBnnaErCcWppg9zElODx2nl0owqvrOc23cEt1zebq30DbljuU+Exn3COrj7HveJa23WbuXl/GWuWTZPXcl5lpuqn38jmd1n2VpqAAAAeLh8o/spD9/EazN7EkL48cDnBQAAANiZixOXS4y6hS/t59e1XBKeo3Ut8/NU8dykLhsfOppHXz1sWQRG6VZLw528LOXdeS3LdSknD7aO60gWMXmjXILux4pC80bBstTL61nG58FC9JV5W/MY0vU56bfQVbx0Gw+W1uJ8VI8tycW61qWVNS+zHDR3j/K1p/0sKEVM0/qTk2SrlJZMwrLMN4vILDmV1qDMujl1JvdpyUaS5s8qJyZD+9rZ1SYR2lM6oHeHAQAAwIPCzK7VdQM/EB9JeqHDJj0BAAAA9uKixOVygnJ7EtOvazkat23QY63U7ATmLHXp5OWSPK3dwuNjHiuG+GrptimvYSnVpKMfqG63q1VJS87Xt1QqD78p4waL8rOmK9PXZG5bSJIzHqMpJS/TPGyxOc8qdepOScZpFaVfabSTuoQ3ZeJ5/cuUCF3/RRpsSvPMNzeLzlS2Pa2aSvjoNaeZiLQsK4thDq2ALGtRetE7qe8MXo7xaczxXeg+J7c/yUsAAICHyosjnxtxCQAAACfLRYnLbWyXQ7Y1mdmUhQ9KfYuwdAKzeK1pWWhFMSmZ4lqUsRmPK/W2+nyaWolp5hKFTUm2NCmtdzml7a5RjU3vk6xs05YlvZma8eTO4n4eNSFZ186M614uJC4f/TmVXkc5GYJVGRmcsEzvWycvY4r1fdo/fRDF2eYbnBKVSWLWTu2hCNUoMS2lMGODICt3Xqql5L4JkNVzuvvrJWf7ubZrcfZpSpu9oGYcAADgAfP5Ec/9iZk9plwcAAAATpWLFJfBleF6EbmTlNzhq+wrDdOWzdNR0nIwB0udwc06y+UifM1SimXsWlIehaMrBc9zuUrSMf17mrrS8FxanuSkWd0uWyuso7gsqc2Sqsxjhjr3KXUdn11gLjHPZdhJ+129V1g/UmnQU+SlWqFZruW9wuovasLS1qqdxqM4rb6yziOWf6dy8qlKz7DOzXmypJ3aEu9Q77WrApfXls3HlORmCObmNL8d6r4XA6XiAAAADw4ze6zDr23Z81TSmyPPAQAA4Cwwsze6/yVe/jaE8Oaez3E2XIy43KXUdlO5eOoVvdOXVGXW4rqWbr/FTuTN5IImv1akf3SNeEo2cErrWaYy7dAlDGtyMtRUZVBc6zJJuiopa3qyNudxCc9Hq1oOnubgE555P7t63158c31VWkoWU5ohlYFfhbTmpROWCjLLa1umhKila7h678rGzYnFEIVmEYwuCenNYE6Nhnz9aZwsSJ0hbhsaOXNZyuOtSkj3dpMEHdySeaOn8W0DAACAs+bpsScg6cmxJwAAAACwxMWIS8+2buLSIH25q7V05tKnKpvX00hYViM2mtM0ZeEoSSGWMxdhKTXybMrpxbViJfe6lpQXWZmEYlAqhl6nkm53vUWDhtLBvCQ2LT1ON1Vmrq1Kv5zGdPIyJzFtYOrMVipmN8tIm2LJdghSkZdxe5aXSt29LQnNcu6yjuVUz5/EZrnHqcS9fAbBXBKzFa8KcS1PC1cqt7ukPos7rd8AualQGbt+xE0qVv7JAkUKAwAAANw5T449AQAAAIAlLkJc3kVabWN5uDpvafVxJjDz5i5laX6H0fmLVEypSvc6S60sI6NUjCcO07ybeE1Q1i7gViRjEp6jJjxNZ/G8fmXdz0oZeFce7sdtmgA5prieZBGBeT1KS6XaC/LSlGXplbsui9ezukrre65T2jLtU9a6dGtY5tfmZKbq83ZNy5ADnO0n5oW4E5X1bSvb+uRts898I94SAAAAAAAAAC6OixCXnm0Sc7ZOpamsh9ngRVJadtGLyiVh6efgx98+ryQn5cqbWytWJF7t/r3WNKXmO+b3d/KwrEt5o1gtntZy9IJz9jxJy6v3Cuk8UXyuZeur2rQnS0IFaUpl4laKydvrm1ZJWlZ5qTwXTUk+Srp6L60e1RsYplIiXu+VZiXjcdta0lUpC69JVdUPqsjI+qFZMYdVWvrHuv5ml1gNVpOpeYzQvue+K2b3JI5ni28DAAAAAAAAADxkLk5cZnYpFx8el786UTlKXJpzTsPmPVOUYn775vk62bjO9cnuy6pYDEkmSuvUu6Zuy3IydwfXtErHrUqZdG3Gs3aNfdZVik7vnaB0HcYnN0ZJbMau3SHNfVQq7te4jGlSS0nLdJ2ui7g9eq+weiRpcvfNknB15eBSErJX8Uv1Hs7WpizrWWZJuXbl5EEWTKUxUPl3UKn7z0nRrGVDlc2WBWZJWtbkpS8ar2POZSXNeQAAAAAAAADg0rhYcenZp5u4TDMJqW57PqY/thyft+dju/MMJZWFIsYkSVMoiisoaJqiXMyi0UcQmy7gpZw6y05J06qKyiA1CcolienX0VQnTMOk2rk8Jy7XtdR6dK9zExwbiMpcyt3JS60eSbaq606a6v5y462uOmGay9BzgrIVlnEoKwK0fGglcdnKYkvraDbrXeamPHLP8yks5AL15SBl9z1Acx4AAAAAAAAAuDQuSlwudWoerVtZt8+7icc3VWVlv13tuM05m/dySq/db5o2zL3s50qXp9oh3K9DmYXjVIRklm01QRnTlnV73DfM05m587jWpUTckrjzz6PEvJHWUzlfsJi4zDZusVQ8y0JLacWQb0Qeax23TauYoLxaSeurOv/QyVIpNvfJjXrKyUKtYvc3uFSNX6l0N3fHFIFahOfotUpheJOqtJi8LAO6kvShk+w2krgEAAAAAAAAgEvjosTltmSlx5d5jwfzO6uRmPn40XqZJbznxp8lMQcnjfvUxKBZUAipMDlXHpdUYN7XCcigtjw8S8xppaBVTViWknGpbcyzLuPJ8n5BTUm6+XLy2qBnunpflGWc++B+TmkNS7NWWpqStfNl2ZPMsnCtycianPTNdfKmaoOtl4BmrpmOdfJznrK0PJ9eQqb733wM5YPJH1KaV3W0cwaSksQlAAAAAAAAAFwaFyUuvfwJqfHJViHUxy27snDfWdyfp6yBqe65FNe2zEnOTloumVKzmFxMs08JvlBKt8vak0lAygtFrZMz8yXgKW3pJV1Oa1qQaaV10LxkfHovlfOE5pxZZkpr6ZFLXZYy8Tz7QeLSVs7+5ahiTjTGLuFFYOamNUWuVhmo9ZSSl3JJzDR+vnf5k8gpyJDGyOtpqv3yycpmfc7gu6aHIjBzpbg/VSM38/demY+5xzxvZ0UD1hIAAAAAAAAALo8LEZdz8ZPlYi7LXioX70fZ4BbLOEszmElOm7+3OMa0LqXF8SGVfFtdO9I/b2N/Ugi10/g4bVlTl7KVovhcRRHoxeTkxujWt6xzSK8f3SispyINc+pyeItKUx+TwlXqMp4lZSoRb8q5k/azVRKC8T3LZeFZYPr7UEjCNVhMj5b7upCyzIIy12tb+179zIIbe1LpRh98OjMnL3NSdhomLBu8BAUAAICHxI/HnoCkN8eeAAAAAMASFyIux1JwoyjUQGTu8qW6byMk87appgOHKcsNc6lSTVFahpzEXJXy52B1ncegnAhca0rl4rX7943U7Rcfjs/AvAAAIABJREFU103yMtiNlNewnG7Udy3PncN913LfZdymm5mwHDcfWtd7EdaKXcDX3U2ZUsJTJYVok8XnIavMNMi0iiXd6/wBpCY6PiFp63TfWmnZSklfNp6uw19AFtHBbZDJZh9q3u4+0JykLBtd0nJWzj64ZwAAAHDWhBDe2tIPoofjFOQpAAAAwJCLEJdL0nK0BuU8dbm4EuHsuMkUS8A7ganuXMoj2ubn7YnW7cuplmWH/H6TgHTrVuZtwUs7qS0R7x5zw5lppXUIUioRD0lqmpOTfYOe+XNJIRVZ26otty7Xc6PSNdyCFNYyTQqrRzGVOJOYyRiuvSi0tJ97PSWpG2zWpCd2A++Pd+93n0PTTTxLzpCTp5Zeu2Fma1tqLiwb4elPVlr8xKFIXAIAADxUfivp2ZHO/ccQwtsjnRsAAABgKxcrLqdpWVr2x2762nTOkrxs0pe147RPXJbnkq6GXcWduXLSMqYGsxlLacm8BGRKX2bBWBOYQcGlJ02rVOK9iunNVDpexi/JSpXx4iXk5yGFIOfPqyR1Je2juuc8d1NKNMabYFc3qXP4lMqr/WO8aX3f91Yw5nuW7kspH68f3mj/XlKWhjzls3P7OgFaEphSvNacBB0IyzzThb7i7e05ehgDAAAA7olvdTxx+e2RzgsAAACwExchLqUu7ThIXvb7bhKTvbycynObJznzlxda+XmXstwoQ7PUa7p55/LulXIHb7PUqGe2Xz02NuVRSVUWwZnmmauns4DMki5k0VnWwsxCdF3EZJBPfobSzCeEK7Wl2B3TKq0LmaSlTyNO+XlMXjYJzK6Gv7998bUTkNNVTULmf4erwf6ZnHx0gtQ1y2nHl5rkZpbUA2FZ1uScfeDd65DmgLgEAAB4qLyW9ErSR0c496sjnBMAAABgZy5CXO6yruVSmjKXi5tss1hsBlOTtJTFgKDyGHmb3H7Odw2HnEIjDGviMj0GaxKQtWQ8lzKvZdNKoUi0WhaeO4ZLK9Uy85XbtlIuPZfFMepc8vqWbq3L3KBneq/SfXwdzxmc5GsvMCcu09qSfn3JEGoKc/1IuRy83MC8xmXIz9ft63XONrpLbz6odRKOXkBKObpq+XxlDEspy/bLinANTkzGI2LysvuQ/ZDurOo24SwBAAAeLiGEH83slaS/P/Cp/yGE8N2BzwkAAACwFxcjLoOTSKMS8aXjyuOmVKaPVJp7OThffNLt4wJ506BMPB6bEow5ZVlKv7OczKlLv/6kK9VWSkxakBeU/jEet9Kw0c50E6WnKTXcWTnhGYqwzM91FZv61G7kNwphciXY3fXlruL+PpuTjFnyTTcxIRnaD8eXizcS0m5iitM73JzgXF2pJkBdKtMLTEsdzeOnU6aS7mh5tBhP7RKXaZf8WZSO4u4C3SOCEgAA4DIJIXxjZteSfnqgU/5epC0BAADgDLgIcSlFITiSl5lta1xGOWUzITnavwnVlXFtdh5z+5fng7lJkk3rmSSspdlJWKa1LoMr4Y6l46kzeE5MKqhd17I+1oTlujxaXg8zqOxjuRlQ8A17osiMYrOWj9cmPVFeLicuk9WzlLAMPoG5VlzXclJu3BPXvnQ3sLhHl9Jcp2/xLEG9OMyNe9b5Q5saiVlko+TkY5mwqiSdUpm7lFOakprkpfL3kMt+Wq7Nz/jbgsUEAAC4NF4olo3ft7z8vaTrEALdxAEAAODkWcj3PSyWko9Lacu6Pckps8FahCqdnnuhOSKkpjD9WpflLNY2DJpPal3Ll0tQLzXbyY9XN1HGWUpQXt3EhGJe83KKjzatyvP+0aa4JqZNeY3KJC6nVR17StLS0rarP6cxb2SP/rei5A11H1vV96f0fHZ9dT9LzzWtyvZ8TsvXYuv4/tX7+JWPt7xfkp5Wj2vmnM9TP2Z3TJrTdJPGTfc9l66n+13TtvVzyJ9LHrcJ4/rvu4Wy8D6w2W0CAACAB0oI4ccQwueSfn2Pp/kHIS0BAADgjLgIcZnZLiolr4pG6crROpiz8eQb9sTXV1O3vuWOYxWySEwyLpeO93LOktCzadVINl29jyJuupGm97KrPzuhuSqPXhjadCO7ep/OXd+zvM/Ve9mj90ls3siubmKeMMlEm26iAM3ScVrLrv53nMPw+lblWqocdVJ19F4SsWZycrQdq0rUvKan/6iz8HSS1G7iNZU9nZi09nn+3oj/KZn7x8tJH8F1ctNvHnwBAADA5RFCeCXp/5D0n+5w2H+U9LchhJdISwAAADgnLqJUfFSC7Uu4h3JyNM7CtpKqywIyVQdP5T2r+5Z03/y4TfIylnznWmK/YGNurqMow6YbKeQS8ljqHXIC02rjnFBEZe4AnsrCbR3Xr0xNdXLq0FRLxaPUi8eGvE5mMOWGQL5xT23eI5XE4/pqcH2rdBN8c57l++4JQbF7eXjkmvrENyw95oF8ubhpvqxm3C10Zdv1tbm9rJSoW5SZwZpR5o9W18sMUz1+Jwbl9QAAAPAgSU1zXpjZS0mfS7qW9FTSJzsO8QdJbyV9K+lbZCUAAACcKxchLsfsZoxmXcbzV5GUVT7NJOSGRGYzxk4TSQnK3D1cMUkYksQsDXNyErHsk8Tk5Ne8TGtPTqtUwr5K73WPV++VZWTwncVV5WQZPzfqyetdmtsmlxDVWnq0kLh0y0NGMbiOT4O5pjxZIjarRaZtKQ1ZuqrnhU1r06J4w1cxElvc71X5XPI9LmthmuJamWVcN77PR6YxmjU0Rx/j9k96ANISAADgEknC8XX6kiSZ2RNJTxYO+TGE8PaepwUAAABwMC5SXJY1KZttXdqyk4pLorEp7R35JS8xl0SmF6NLZiuVPIec/ssSUEGaqmDMXcItNcHJDX1qEjJ1Jk9JyCovndhM3cqDk56WLF5wN6bMJzX3icIvpy2rwPSvS8Jzdn0pcVm6eQcnKnN+NctCt95nvumTXJOduF8pfw8mSx3Ei2R2Kcw4f5+IdCXgwaU31cvLOIdmvcrQFnyb2tfdd8wWQpkiAAAAgFTSmN8deRoAAAAAB+FixGUrBHOUTjOBGXdu1dKslNiclupSlvMvG46x/wVk+ZfnngWg2+7Slpr+nLxXTTsGS2lKWyl2Eb8pazuGtSVZGd+LJeK1O3g81yqlMFcK4SqNvUql6KsiVM0nMEsKMpWeW0il5h3TTdw3XKkkGM0JzmBu7HxHQzpvEpPFewaXngwlXRpvUZKTrly8zmElrU02mbReu07mPnHpjuvLw02pzHyqG5rH3bCyJAAAAAAAAAAAwOVyMeIyM0w2dqJS7VvtfvkrNdvZJ0y3d3m4Z1qpdLX25eJTlYt57crymMRfmP6suCZl+pJrgpPF5BTKGJrep9LwPO6qrpmZ18vUe4Vgyo1tgq1kIdrAKixrybqmVZpzkoizm5Ob5uQkqSSllKRyqffgmLxeZpKOmhRl4noV73iWkDJJk0o38iwf10rHKEnTdvwsLatLDFUsevFpIaU4k0AOjzT/pqgNfGQh3j8AAAAAAAAAABhyEeKyl4UlBenTltY8tJJylMzcFopzgnR7J/O6zT+2b7pGPFNe53FdUoghN75R9xjMlYHH0u7YzMc9pnLpkOWmpHmp96qWljeiNElAWyukJGXSl8rrclpOW2bpN0hc2nTTNbeZ3crB9nWRjtF1PpqnY13q0WdfzX/goe5dD8wl+aqJy9B+6MN55fHK/u6soT0qC9AsMElaAgAAAAAAAJw0z449gUvjIsSlZyYhfdoyPVnsKu5k40g6LpWJ98f2x+028a4sXJNsWtWu3mWNS98dPKR9aiOfZg3LvN5lel+52U+TxlwVaVm6k6uuf5nXy4zPpTC9Tx2z81g5LenX2xwlLtf1w8jBxdJ7J7i1Lr1EzGnKSaUEPagmL9fuA1VKYFraP+RGPWuZ5WTnWjHl6UmyNa11WQVknptSObrUSlB122z2fnP5SEsAAAAAAACAkyU1yIMDcxHicpxgdEW81r4eHW/FQrXyciYzN5SKL81l1+Y8WdrF1OWNqhAMRQxGEZnbZedkZJWLrZCM61b6hGYsPQ9xncuyHua6rmM5JTGqdWzMIy8yV/H80/8eyMtQjxmWisf1JC2k/ddXaiVlfV5KssNVvB8hl7uvpFX+lrba68eXeud1Mm3KL/0kimjNZeWmqchG63fzn2laW7PslwWzT3MuJUq3SsuuARAAAAAAAAAAHJrrY0/gErkIcZmZSUEnGZ2XbNai9MLSE8J8vNyAOg9y6/UsR6Sy6zaO6BvndGtWln2SyPSXYXmiaZ8yVi7vzmJxXRr2KDftsVURo7EEPMnR6X0KQa6TwH0fRWqwIjilILv688L15TUs04eSS8D7BKPbv/jZsq6lpKs/S7La18fympJO2Ia/iKOtLQrMIkdzCtOi3MzpyyIWV3V+5cTr1Ownrz06nK1c3fnC+0sgLQEAAAAAAABOgJfHnsAlcjHisl3j0n1JbeJylphcSsktn2dUJj7eZzzmbrKzF5W9xHSC027iupI5mVga9Kya5zbduOY+qZlOer90D5+csMzmcPqzSkMdq+eI0nMdO3mXMvRB2lIqjYRamxyk9SM15do5dbp+VG9WLzdzojMnHPOak+sgC38xL/X2dekhiU6fvgxTmt/VrBN5+9y6rZs+yLD1fdPsmxEAAAAAAAAADoyZfS7pk2PP4xK5CHHZlnZvF0H7qqK5iKwj5H4um0TnbidpU5SzruAavJ86hEfpuI6PZX3LebOeKDlTgjI368n7e9np166c3td1NlPispagp3EeraW1pcY8q/EyjwNxabIoXNfzdSebpjxpPUvzycvUkdymtbQOM+EYr0uu8U4+e281pyRN1UlNF8T04+RJhZyu3FQGvpS+JGUJAAAAAAAAcAqY2VNJr489j0vlIsRlT5OSc2lL/4aZLTTcmY+3SU7ucvy+a1w2YrLZvrCOpWvsk+VlKz9dMtNWzZfZSiGk0vC0xmVcAzMopKRlEaNBbXMf3yjoUZJ506pbV9JfX/4QplSqnUqxr1QCnXG9yqu6pmTyg+bko6SYulwrCUTfcGgVb/JkronPI7VrX67jvVB8GsKjKDTT+qEW4txCXjszTFE0hnw+n7jcRUD69CXSsif9IfFYcT2Rx5KepreeSPp4j6H+KOltev5W0o+S3kj6LoTw3YfPFOD0Sf89+a/H2v6b4z9I+k7xv5u3kt6GEN5uPAIAAOCIpD/vnij+WfckfUn7dQP+bXr8TvXPwe/4MxDOBTO7Vvw7VP6Z76mkj7Yc9lvFvyfln/vehBB+vL9Znj5m9lLSK22/d3BPXIS4HK1tmZWSV0Y22ndhvGUhuVwivsS2VGbaq8pJ8+JyJCxTqXZpmtOmKUtq0pWL2/S+pjJt1UnMG1mY4lh5vOm9TKu0LY+nUh7ei1PTWmHKcxlc3rQu3bfj21NdNDSEcl4Lj9w9Nvdvf5/iMTFR6UvP5ZaarM1+dPU+3TpTWbtybenYKTbo0RQFZZgUS8bz88klLdP5g5vLzuTGPpctLVOXtmtVqbLPD5fb+MiNlx9/lc4rxT+k3yhKmW/v8LwARyWVteSv2/zA9XH6Kv89mtkfJX0r6Vv+ewEAgGPjBM217u7nx/7nxnwuqf7c+CaE8OaOzgfwQZjZY9Wf+X56y2Hy93s53sx+r/j9/voSxH36O+kT1Xu5T1gG7oGLEJdD7tgPjZr4LDbwWVjbcvMJ3LqVPmk5atBTOoZnUehTlDcp9WipbDx1HC9iMyx8vY9fMtn0Z7depVvPMki1oY+fz7puL0nKnnhtZubKrnPjmyxFJa0nldRkbpZj6/ZRa1lOTvadyYfl2yGVzqfrL29bSpmatJrqPQ0pmTkb08nLW3Cp0jL9RvyF4g+ax1wz5Fn6yj+Q/qOqmDn73zKa2SslUXvG/DqE8Oq+Bk9/6fEJ38yufwH6bQjheuteByD9wPVS8b+t+/jt8EeSvpb0tZn9QdI3ij/M3uq/FTN7o7v9RcUm7uX7yGxYT3Bf/O0x/6J84P+fHPy/qwfy/8ttnMz/rzIH/v+AJP0xhPD4gOf7IA58f07+3tyRoPkQ8s+Nv3qIPzdC5Fx+Pkk/971S/NnsPvgkff0yScxvQgiv7+lce/NA/9z+p12WOTwkIYSjTWhkkB4sufy72dbtM6xi3uHjyUJy17Lw/v2l53WjF4FOWPbbk0SspeH50YlJhdhQZ1q54/oy8Szy1qlMOnULn27UlJmXMdJx06rOYfJl42msyXct99ccyvnm15fmn+WkE6xm/Tm6bVfvh0LWmuZFQZpClKSl9jxdm1Ly0rrPoCnb9981lsYp3xmbv3H8ngf9O+9xMbMnZvaNmX0n6XeSfqnTW+j4p5J+I+lfzOzbJLXgAWFmj83sZfp8g6R/kvT3ij/4PHNfZ0P6b+u1pP9P8b+rQ5S0fKx4374zsxcHOB8APEwOnd7+KCXST54k6Q7559HrA55rL8zsOv059y+KP6cdQ1qO8D83vubnRjgE6WfZ14o/992XtOz5RNJvzOzHVEINcO9clLjMbKvIluZycUlKjrqIN+daEJhSLRH3+y5Pei7oermn6aaTdINjvMycYrdxm96n162wbMrRLSciV9EfegE4rRtpWeVlty3Nz6b3g+vLJeRzGRhvS06Ypi1ZqI7uTSNy1/W+zLqth+ba4n5prgrpvO7agysZ9/P2EjOfo5So7/hLiVL9/rDlpZm9SL+5zFLlXGL3P1X8rRdi5gGQ/tLzreJfev5ep/OXng8i/bb5kD+49nyk+IPsm/SbfwCAfTjGshPXRzjnbTi0YH194PNtJf0M+Vbxl4zH+nNuV74WPzfCPZO+t77TcX/u+/v0fX59pDnAhXCR4rLglj5UIyJ3k02jdS1H9IJy+7bBeI18G4jFkoR0QtNLxz7RmAWZrdxrm5/a1Mq5aSVd/dnNIQtKLy9TWnFy8rJI1ZTEnN3MKAtbaemTouvunGsnOq00yDE/Z1vLFCWjNenPTl5Kg0d15wt1jl4c+zJx8/d/DwF5WgnweyH9sPmd4m+izyrB1vGxopjhD+gzJAnLN4p/6XkQslKSzOxp+svcqZTIPJP0lr+sAcA+pEZ5vz3wac8icanDzvMPp7SGnZl97n6GPLXqnG34nxtfHHsy8DBwKcvf6DSaxXysKOq/SelwgDvnssXlgRilLnfdVt9cLcjLUOSjT0paEZZVvrXNeXIDHjkJl8d262Hmr+l9Kyyv3qf0Zd3fGlFZk5Y23dS5ZYE4IyceQ3dtWQLW9GK5tul9PX85ZxKGIWvM+jreYJ9OTQnLvN/Uic1C+s/E6hxDI4X9MW7bLmXizefdydMHQBJFbxX/YD2XdOUu5D+gv+UP6NMn/YD3jaKwPGdxPiP9Reh3Or2/zOX05TfHnggAnBWvD3y+j9Na26fO9QHP9fqA51ok/VLujaT/qvP/GTILzDdn8v0GJ0r6e8cbnWbq+JeS+B6He+FixGWzvuUgWNjuO//asPcec9h518HBWdBleZnSf5MXkoMycYVaUu3nbBYb6GT5N1iPciwR/fqRN/G4ae1E5ToJzXnSskk9brrO0qjHl4K70vTmOlLZu2+MMxS8eW1NS+lU94HYqmuM40q/mwSrP7UvD+8Tl/n1luTlSFr68c+YJIq+VRRFpyZU7pKfKq7rdy6JjYsj/fD0VvGHqQdFkoK/OfY8tvDLlAoAANgFysU70s8Yh0xVvT7guYakpU9+pwf2y0bF6/kdv9SD2+Ck5Sn/3eoTIS/hHrgYcbkNU5aUm9eqbNe3tD0l5/K4u5NLllXFZJMQdPJsei9N7xUm33hnrZqkzIItJxeX5KWTcM0amKu0Pmba5lOWto5raHbj2ZK4NCf7mmtat1+9QJ3W9Zqnm7Q+pTRMPSaZaf3ak42AzCzdj3j/zNZlHUsLV7EhT/7SNH89u97uMx09P1N5mX7A/k4PqBR3Cx9J+q/8EHp6pDTiG51/UmNGkoHnImO/Rl4CwC6kbsz/6cCnfXHg8+3L9QHP9ftUsn8UTnDpk/vil2b2FrkDu3Im0jLzkaK8JNgBd8bFiUvrn29onDP8UlJL1mTtmq/ixQb9WW4jN9OM1Eqt7r3chCbJSt8x3EoaMJd/D1KBdlPFoxOM9TFLxEEKMwvKUq69Lt28ZyXieVtHc7v6pKdit2/LHb79l9R1Kg/dHF3n9GBtF/QiQnMy9KYcb0vfGH4e5u/HUvoyS9fJD9F9rqPPerTv6ZPk3X/Vaay3cmhIlp0QSVr+Rg/wezF9n51iidAmvmZ9LwDYkUOnLj858WVfDvmX/6P9Etb9svEcxMxdkJNpL449ETgL3ui8/tv4SNJr5DzcFRcnLjfhBeXyTvUr9DsumczBeKP1LbfMTlmIhaaj+CqWfM9Sl7XZTSj7pdddp/BG8i2VjOcS7Ca96SRgFn/TTZGWbdfubszR9TWpy3xjnDgtX4pfOV05K/NO5whTeq/KRQtd0tJWrRtM1xT8epkjykEuGdpc36BUvZ/qTuXh4SzkZSoNf6PzSYDdFyTLTgAnLR8cqXzu3KRl5jf8AAsA2wghfCvpjwc+7Ukmg9L/Mw9ZNXCMUv38Z9uD/GXjFlgPGraS/m5xTtIyk5OX/OwHH8xFiMvh+pa+o3iz756Db5CTGw+7TRVwExftBeDIjirKOn94Wd/TJQObQ2JyMqQUY7CVZLkxj5eHbm3NdO7ZvStrW7ok5tY1Lt31LK2taYOEpb+eYLLSfMitM9nI1pyG7O6db1aUhex0k8rtswh2onJKktNnRoPNX4dpT2nZlY+fsLx0pQvPjjyVUwF5eURSWcpDlZaf6/zL52hoBQC7cGiBdpLiUoctE//HVKp/UNLPTOf+Z9uHQtUODEk/+53rL6ylKC/52Q8+mIsQl1spa1a6x67E+85Pue/YSWyFQZqyLX93qcuUBAx2027z61aWtGBb8mxJlvmkoznxV+Vnvpb8fN3Mt2zP28q6lKPr8/NLa10Gk4WpKw93z0u5tj9+pVxeXufg75MXr3ldzpwmfd/eIyd3Q2n648+Xr9dLUS90k3Sc/hxL+N096T/b2fMz4MzWWzkkX/Pb88OTfqP7+tjzuA/M7IkexrV9rCOWIgLA2XDo/0+c6rrcLw54roOnLc906ZP7gl98Q0P6e9brY8/jDvhYD+M64IhciLjcIoOW3g5qgnN3OqMdysfHE0qPTqyFsl7jOqYBm7JxJXF2k0rG1/FR626ctWpZeZaYqyQss4RzN2KWrpRqGbcvk26F6GxuS9c5S1q610Ox6BOaTkzmc7k1P1v5OKAXjz5Sa919HonMsq5nlpmuy3mRl/lcC0nZfB80en4aIC238ksWpT44r/Vwy8y+1cO5tq/N7PrYkwCA0yWE8FbSHw55zlP7Mzv9wupQP2P9MYTw+kDnkoS0XAB5CZ5v9HB+9vupmb089iTgfLkQcak9vI9PCLpNe3ijXXbdJCnH74XU+KemLdsSaX/2/DqlJtN2a1KAXUpRki8rj6/Xkr1P5eIr9VdWk5bBJT1zQ542rRjP36Yw++urc1K3Xxg8H4nQmMK0RmSmcvUiXLNozEf4e5eH6USo3zZ7f52k8I2G5LU4vYSdbtw43T0o92I83InxWkjLbbxOf/GAeyYlXB/k92P6Qe+hXdvrY08AAE6eSy8Xvz7guQ56r9Of2UjLMVTtgNIveB/afyOv+HsR3JaLEZdhQSf2mixICiHEROQOwnKgEO+RLM7i89DIvlYsBkvrSmqlIC8s11XsNSnFlLjUOiUEU4qzGL4wa8xTzlHWwlyV+bTy0pWgexk4vD6foJRm63iWBGyXuHTrX9bUaL7enEj163L6ebvGQrlc3J93ulHbUT0dkz+M3PDHdWUv+09/rvfTf/XJy42x3/v/ztqXtIj6qZZVnRIfCUFz76QS8QfZGCr9gPfquLO4Fz6mkyoAbOHQ8ub6wOfbxiFF6sHEZfp//4P8M/sO+SV/Rl48r449gXvgI7FcENySixGXkmJ9dkgKaBD+K07MzL3QrdJvmzTTUufynRr2lDLsLjFpKqXgTSrTrVEZigAbdRVPYnKKx3rRa67BjOV1L0vKMotKOSGqKh3NC78NJdqzzugqSdGmzDvPv5GcrtmOrVPncCsfdBidc6Hivb4fVNa+VH0e7CaJyilJ3rpWZrAbJ1Gz3OwbC/mvhZRmvu6+i/qJkH4D+Ktjz+OMeHZq5WcPkIf8Q9ArPZwyoZ5Xx54AAJwuIYTvJP3+gKf8+MS63x7qF8R/SJ3c7510fx/yn9l3yW9O7PsRDkT6u9azY8/jnvgpywXBbbgMcRn8013s4Eis6V4F0jZpGbL8G7wzLpv2Sb0sO13KcHZMiGIyTJKmVFrdXbArDc8isGl4oyQvk1w16wVpTkAuXYc7h+9gnsWhXy+zaS7kJ1jPX2Wl/9C69OLi59nN0V9DTp7m1GSTLs3pTiXhWoVqu/bn2o3hr2GUsDy5xOXrY0/gDOGH9HsiJRIe5A93KW359ZGncZ+QugSAbbw+8PlO4heNB/6F56GkZW408lB/GXcf0I35Mnl17AncM6+OPQE4Py5DXPYkB+Rl4f/f3tvESpJleV7/Y+4vsnr6I3LEW7BB8RAbJBYZxRIJpdcCMRoBFQWNEB89+RI0mkYg6uWIqcrM/sgX3VWtEQhVJBqoj+5WeVTUzKzQRLAFKT00EkIs6IgFQmLBvNiX1PGWdMazw+J+2LnXzPz5e8/9mpn7/xdp6e7mZvdeu+7P3fxv/3NOlIuCG9K7M+0SnttURurapk+g3KjKeCvEuQl9ViuKdY3COvei+NYuQqP26GzV7dh3KExTN8KcLcrTWTAnK7LTJwx3ianxSUHitMzC36Mw2xJbnWNTQyh4DG9/13TZNdWokL4B7HwaEVmuuhuIIeLvTAj5VXo/ES+7BtPV/7D4K2QPhh7HBKFAszvOhx7ADjkfegAFOB96AIRmVVx+AAAgAElEQVSQUXOoeS5LjmNZqJ9z7F++5l3zAPyePCi8y3YvL8gbPqTrktyUgxAu27JPe00TJu5FxI4lPHcT02UieemGAmUXWVGZ9dtYgS90LkYHC3kZg/gWlsblqJ2uSCAV0+o076VfH4vwCHzxm7brsrPdPHw977OrmE3uqkzyY64X/VTeQSuT3zIIi9UVVL5Oc1ZKJgr7vJUxR6YfcxRIk/B4u7+dBzO26gouIt8KzHYZh3ipqisAHw89jozXAF6ibDjZbWAlvS3jxeC9FNIPwG0ZeCAiKwAMhyOEtPDh4i8KdvnBSIpHLAr188ZXcN8pXqRgXsvb8V2KPAfDKcpfrBmK86EHQKbFfOgBFEOdVicKJxCpulyW3ZumwcW5ZmTEyx6NszOyfJ1oea2oaYq+aCaIRbdlHH8jmmnnrXteTC3wXOATCFTDgZqjVYGIwNUfrwDtcFkmLkgXGq6xj77iPO3+Ww5MDe2GmQ3r/Hqtmrak9i+4wBUumqP9inSNwYuvVtOX2h/nFVAJFAqp7/khaOOavPqGOfbKvOEUsdpTED9bb7JwSGLSGTQbyNpxl0VVlyJyAffFWirc5w2AlV8uALxS1bd9G/uwmod+WWAchYQ+EJGHJX4gHBCnQw9ghxyS0L3vzgJCyN14jrLf448wYIoX77gqdVGu1HGOKWXOS7jzybcAus7JHgJ4H+78cSzfT0sAJwOPgeyevbwY38OH/F1EbsJBCJdBe0s0OE/Ui8KDZBOFQroFRQ3mxVyB6pbGrPh5K9dlEOXsYCU4J61NNA+vtmKdK7ATRD6NxWE6hEQjpDUH1CFOSp2ps4hzrclx1miHgNv9NO03PjCiX+w/iJT+cS3N/SBuhudj+1eu6fhmqM32ajYVL/BeuSI/UQDNx3HVCKOhr+qvgHoOVfOeseNMBMy8PQB459qrZx0vxzgclwFVXfmrvyvsTrx8A3ei+9w7LjbGi5orvzzxQuYjuKt7Q54UnOKwBKmdcQChNKdDD6CD8GPvFdwPvi5O0Fw02OfXhxBSjudw5wOlLpYuMKzQdlqwr527u0TkDMOHiD+FO5/c5HhX9oHPN/oIw0ZBPBCRM1UdkwBMhuUSzTnZuvOyh3DnZgsM/3eYc4Zxnu+SEXIQwuU6EudkhyGvpTEGfU364+y78ljGEPQN2Ki6eJe304qNXaIlKqRORMA5NRsB1LkwpTUZVhJNB1shFs7pypXpQ6IlhFJ3hnyjab23I3OMQVCEeCdk3TwntRObUftj8M/JFaBBEMyE19CG1ID8FVAfuWMQhURhswak8kInzFxnwqefh7BZTKRpBUvrFA0u1DguASr1Y22L4mNCVV958eg5tvtF+BLAk21WuPRC5hLA0p9A/2hbbd+QU1C43BanQw9gV/gQ+LEUL7j136O5YPAI43A9E0ImiKq+FZHnKCccfVtE3l8X2bFjFoX6eXnTC8M3xX8PnO+yj2t4CuD8Lsfpv/+ei8g53LEMJWCei8hywPclGZ5L+N8zN3AqrsIdnwbjEdxvkTG4O8eSU5hMgMMRLhVJqHhcnYlkiVMwc2CqeWC1q42HoN3i5U1yX2pUxLIBeDuhG6PLpRjEQ+3KeRnEMis8Jm5KU0QGJsTcCpLBjZm7PpNwcjFCqaBVrTuQOy41l4Wt4KnxRZIoxs6MgKnpfrGPK2glkFqASpxTU6RZJwLo3ByfcW8mDsnQbu3nvIZUV14j9UJojTj/0i9x+6Uyx43GfTkN8fLCOC/vKl5eAjhT1eUd21mLqj7xOfVWKC8O3R8wLGKJzEWwJZ5gmCu4pwP0WYoxnMi9hPt7vPV7NbtgcAL3XqGASabAErv5vLyOUxxGbtvbUFK4BJx4WDzXnP+sLPWduizQxxmGuRD3BsCpz82+Fbz4eSoiS7i5Ky383Iebz/PC/ZLhuYQ7h3pyF+Hav4efwEWjnaKsk72L+yLyaEtmlSXKfG9/VaCPwCfoTmdxkByEcJlLP0EoXCsY5gJneBiddU1b4dm4+U50piAA+ryScCpsUwU8OPkkPpess4O3jssQeh2OMwqY1qmJLB9maCM4KoFc1EzGlTwH9IqXSY8d++Yh4/FxCOm24eHGGZm1HMdvcmWqKCS6L4MoWUN1lr6c1Ts3FMCJncH1ico/N3P3gxis6kLH8zEH4Te2a0LPw1jFOC91J2+qreCdEAu4L7/b/qh4AXeCWeQqsneLLjCMePkIA3wJ+ZOVi223KyLFr/z7sK2xOBK3inenDCnuXcK5U7Yajubff4/8a7fEnr5+ZD/Y1efldbAARz+q+lxELlHus+MRhimSUfLCVYnjGyLK5DWAxa7OKX26pIfYzkX7m3ImIncSr8jkeAn3G+lim436mgXP4c7Jhjzv3Mpnbanv7b4aKTvi1TYvvkydg6gqDnj9ShNZK96qposVu8LzLcNipsV1vYU3C/ne9AAy4RCAc+pV6A8ND0vVLGFbrdIlHlTD+oIwxvmZW1Pz+9lxdD6ZVB03gmg2Its9Qrh3/qqK+tyjNgTcF9eB2S8WPEr2bsaB2rs0feXw6l3aTmi3unIVym3otxVcK9eGSj6erNq4aHo/OF/jcY4XVX2rqqdwITk35RNVfVT6JMw7yU5L9ulZDNDnvjEGR+KuGPLYLuF+7O0sh5a/qv4Q7oclIYTchGXBvob6LF4U6ufFrs+7Bkp7slPRMuDbX6D8d9l97Pc5EEl5qqqLXaV08L/fHsE5+4aC72eyEQcjXFqiSRLozW3ZJWL2tqeAqrYE0OuqiN9ozAon+hnnnXV7RkemZveDsGn39cVnmsrfjXNRbFudGDHU9mGU3NQFmu/be4Sp2BdzP1pBMwh9jbCpMazdioB1u70QZi5X/tjDPldekHTCpFZfuwrhXeOxImn1tZlDxG0bx6oZp9lfk3Y9VRqW3ylqbvJGHAFevNz0y+8SwHeGTDTuRZQXhbt9WLi/fWQx9AB2yGKgfoNouXM3sD8BX/g+CSFkU5YF+7rvXXXFKOy4Xxboo7TbsohoGRhQvDwv3B8Zhqf+d9XO8b/FhhIv7zPagGzCYYSKexFRARMFbRyMGldFUbMykm7cZQfjAtYLnP07I3U8hmjimJNSvfOwEfM07JSEigMKI/ZBAVgRrUNoiwPIBuPbjQV+WrHafYKmaS/mtzRqsiBTka2wOYNKDVFTjMffqs+16RJO+nByhHB7I87mSU2hwMxVCHfbzaDV165QT6U+0l0BzKHyDlIB0FlUrFXd2FzezOwwK0DrKhYrcsdXm+M1wnGoGh+L9UwDn0PyLYCfr9msmEiyAWcoGyJxX0ROdp0Qf1/xPyQf3HC3N2iqLq6rvHhXttHuUFeeH5X8ezQpJv6iVJ+EkGnj07y8QbncgqcoK74tCvVzuc0CiF347+rSYdTFUg4F/HfZKcp+lz0YMF86KcPrUqJlwP9+e4hh8iw/wjB5pcmEOAjhEmiLl9qhKbkNgbS+i3pRM926VdSno7G+6uK3wzsbfVVwjYVwvMIqNSSsjw5IWyXcr9MQMt7cCmY+zPmdFzGNaKhdgzYHFkO6G4EzdVw2guhaz6AXJ3tfk64Q85AzUmfNXFjHKfL7iAKmyteQSoFane+49oMIVcnVj7u6QiiUo2F84Xirr30F8g7hUcTnrTRHrV7IlSuoNztLIthKI9IGzTce8rt1szc6fN6UC7icJV1hQkVFknX4AkMvAXxYsNsTDJA/bQ84webh/bepvDgo/oRxiNyPj4fIoeNFiC8BfLd034SQybIE8EWhvkL13VKUunBVIrflaYE+LI+H+q7332WPUe59Cbj35WnB/khZTgfq9wzuAkqpi0OBReH+yAQ5iFDxqB1pcuN0PDU+QKsxIRrooArUdRoK3tWHbhD/3bd/a6y9G5hclUaQi9JgdA9aIS1sDyTVwoMTM4ZX11leyy4Z0UymaGudtvI02vFc064v6qMScknmIdNmEXMrV05wtdv549OYy9KEhmejbh0XYEK+0eyXjMPuY45HEF2qGlyuNsdmDE93Y1I7h8kx5cczjVBxixdCFmiHg348wkTDy8L9MVz8dnyE60WuS7j32Puqeqeq2AOwGKDPN6p6PkC/gSH7JoRMj2XBvh74Kt+lKCVcLgv0cVqgj0CouDwkT+CiO0rBvID7y9MBRfi3GEY0Le3OJhPkIIRLwAiUmj52D9Ln+8XJ9eLRXYtMNWPr6ry9Xc8oYIU0Df8PIqJ1XKoTNUWNAzO2YdpLHI9Vc9sq8KNIQrDjCNY4NjvXiRf96lSQtPkt83bFCLBZbsqkt5hLMjz22wnQFggVkHeJaKlRdHznbmd/Ba2+dgV8KhNiH8PsQ4i+NmMX2+47L66Gbex9TY99gvgvXluI40tVXQ43ol5Whft7v3B/h8JTACcjfY9twhCC9vkAfUb8SfLTIcdACJkOPs1KyZyCRQQinzqjhOP+za4vHg8QPTB4lW3ff0nxlHkB95cSjuhe/OfDy9L98v1MruNghEtLLvzlMto6XTAvwGNFzrqGL9Kz3p2Zt9U1pta26G+vSf/oczvaPJJRvwuiZVtYtKHdmjgK+0aSjMrdlRrp28n2o1g/q/k2VpgUqLolFSoVTRh6c9tdufuqcV6GNqogGubFesJ2tlp5uNt2mDZLl0Bp+zdjkK9TB2Zn7s+ux9PEFOJ4qqqlE7VvhB9jyUIhJwX7OhQ+VtXi+a22TGnh8s1IRN5BT9IJIZOjpEBUytnGMPHbM7TbMrAs3B9dl/vHzvPPbsj5AH0uBuiTTIjDEi6tnmfERftc4rpEWz7qE5DaQqW7s86FGZ7bvMK4yWkZQsS1ue8eG3HSuCTdZlcAvIBmclIm9xVwb4uwPg+RtuHMRpzTGVpFdeKY3TqJ4+6YlBiWbcW/NGQ8ujCl7n4ZTIh26rr0cxNDzNcIqVarrL7OxhMcnHbumn6dIzPMyTuXAzNxWX7tq5bbcP0rV6HchpTn459gmHiOqr4tnWT6FpQMyzgp2Ne+cwngmyMR4O5K6VCZsfzYm1I4PyFkeEr+sP/QV/veNfsUJr4o0EfgxVguWA4QQbAo2BcpwyjOh7zrsmTqA4BptMg1HIRwGV2NYekQLzsdjUY7Sh2W/UKS3U56BKdNXZb9nbgwb/UVr9NwbeOstAfSJSq2+q9ce7bYjM7MUjX3a7/o3FXfTtqW5CbVKfsEQ0mfjqJrtxtRQ1EgO8chjyfQ7aIMzsfKh2mHDqPYafJhVu9iO05s/LoRI6t3UHG3cb28Q8itqX58GgTM0F4Wwp4Ik9U7n+8yCJV5jstphopPjFGc+JIbczqxPJadDBQiM4ar+sHxTAghG+EFohcFu9ypqOjzaD7YZR+e17v+vvQib8mLcKP4HjOsCvb1QSFRnZRjNfQADKX/tk4K90cmxkEIlwCacOos2rdPvMwdl60lCwcPVcutwzIPHW+Np2OM/eHlmUsxhn4HF2Dz/xi27F2XjdsyFwCDGzLNeenES9veBg7FuJmp3p2EitvD6GgrEe1sg6YQTub81BDOnYRl+8dRqA3PXeU9ejGxETideBnGE8RGI3Jat6aYEHtbxCcUBoJZF0LP/W0azu5csOnro2aeMncn2SWTF78OkMcjCanZBieF+3szMsGwZM46Qsj0KfnZv9hx+3Rb3p5V4f6uo/Q5yaJwf+RwKP1eZoEespbDEC4zx2WMiN5ATOxTLrucl+tzWmpvH9flwmw2CvcF2lelOwiGKk1l7K6CObYgT15kxzsrRWdonJR2sf12LIo0RDofX2+18syFGEXJKyPeGTco4qy22xEjbFrx0jovM9dlU3znXdOmFyU1ujetSBryY77z7st36fNhvLa4Th5ubsXY6utG1DTFfdxz7zrmjJCD5uXA1bC3zUnh/laF+7sOOp4JIRvj04OUyk29a2Fxn/Jblgz3HNsFuOAGLhliy/BashN2XcSrC+8+J6STgxAuo0iZC5XhtsM9ea3r0j9f1+1CPFaETNdrS6TcPFy8atpLQqiDM7I5IHcTBEzrpPRuShvarWa7rKCOyyWZ58tEs28vku2XVc3ucA+mtb/tBGWuTYFxXeYvalv8jLkjY9X0TMRN8k3mImXHWDPXZbdDNIw15BPNwtDtAph2FE3IebYfHZeE5Iyy0NMdKP3jgw5jQsjUKeUIui8iOxEXfajvh7toO+NFIZFvUaCPwEXBvm7CRcG+FgX7IodH6eriJ4X7IxPiIIRLwEhcmdsyFRXXKZXZYts2oeBd1cbt+r7H+b7tA6ig9RGgcyNI5vktTY7LsE098xHTWd7LRIwM1bvROAOtmGmFtRY9rstekbNf8Eyn2AdiW8HT5nkM+S0l5Lu0IqMREaVu3I15aDesYKpeTHRuS415JpuQ8SY0PKsEnrTdVdXcFjbK9rEh4vIuiq0qLqTcFSNKx0wIwdN9yGuZUTpP1b7NHyHk8NiHcPF9clsCZS/CrQr2dRNWBfui45LskovC/fH9THo5DOHS6EqJeGk3CSvWGQnbzSUFe3pdm9q9ne37Ouel1kawNCHZap2NyfNNrkqEfWsb+u2OJHg23ZLmupQgiNazrA+75BMSRtwhYoa8jb1z3OWgtGt7clXasO7WEsROKyJmAqPF5L3UEBqeOChN8Z5Yxdysl6/RiKBXZp/MdRmquwexVK78BKl3gYbts2MkhADjqYa9TU4K93dRuD9CCNkqPsdxqbDcXQmMeyNcevfo/V33QxLus0AP2SEXhfvje5n0chDCZchFmTsuQ8GeOpgMg7CIbj3OympRkssK8rT7bkTJ2wiWzcZBjBRT0btd8VtzsdGGRoeQ6c78lrkD08iGUgOdamNfjssgaNpbt9iWswPsCLtG+1bFCID21i6ZMFm9a0K2E/em93ZW76BJEZ7muKO4WL1zgiKC3Bscku/aQmMoxmOXHhdmdHzGMXe4R8W7LgkhQIGqqAPxoGRnY8sLRgght6SUk/CBiOzCDbTYQZs5T33uxV1T2i11Ubi/TSl9jkKXGtkXKFySXg5CuATQhIEDjQbWISpu4p5E1zq4fJdNf/0i5TrBslfIjE5ILwZCOtyW0gibKs02Jr+le5x3YrfJFu/c1LhdHgqe0xc2bp2gPfsm601uy1DQJoSH21DwZudsfZ6f0oiQ1nUZhUMjKPZqhBr310yAjCHpURi9yvbsCC+Poe72uT5HKIVLQjz7UkWcEELI3VkW7GuxzcZ83swSDsVS35ulRYeLwv1tSulicyeF+yOHw6pwfxThSS/zoQdQAkUqswUNU+C1shC9LFY4TPdK9u/pR5L9m766ns+3ta7N7hyXQfwLj2u/UxAzKyec6dw7AcXsUyMKkyGEPBasCWKZAOJFxbBv0Djj7bp8ln25LI0AGbTjTouqF/Jif3UzHqiZMCP8QQGEHJGh4FAQ+vx+6o9PxB23HU9sxx2/ag1BZRymFaA1VCpIfOE0HUd883hnJK4gdjxyheCIDQ5W6XgHhTXitxCtzHzU/WLvAeArzJ34h4vsafvcXdlWO2S37J1wuSMXDyGE7D2q+kpE3qCMa/0U201VsthiW31c+pD6EvC7bBhOhh4AIYTsmoMQLpuclqkYqfC6VTAxWn3MbyGQ5vkOBECtjaRY14rZzPRhhMq1Q7x2O+O0FHF5K6ur5pCCCltdIQpuCCJk5UVAEx5ez4EqiHZBJDNiYRQp/fZRCN1gyQ8iCKRB4Ot1a7Yk5tbz2iv81e61WhfS7vNROpE6bHvVHG8QHisx+qcTflUEghBKPovvKYnjbIRXhUJikSNravYOS8ALobkQ61+z8MYM4rRW/VO2R4jIAu6k98TclvghQibEnoaJMzSGEEJuzxMAPyrQzwci8v4Ww65L5Lfcu4t9hBBCDo8hhcvSNnoAgKpCpFEiuxyXQXdThcstaN1uVigUoM4MimE/oN9FmTsv0/H1GRK9gBrFwypxXarOvLsviHReLFSNjj2FFTC1cV5CoXoFVFnl63rmxU2B1EeuyMwsFJHpclmaOUqETGQC3hrhMjhBE7dneKDZJGfrrHs0zkM2Rq0aldou3o0pcd8wTutGDS/alWnSHKc6h6XoUXpYUjduz6RtO67w2InHbSF2/5RLL1Q+ghMpPxx2NGQivBx6AIQQQkbHc5QRLgF33rK8ayPeaV/i4mzJYnZ0XA7DYugBELIl+BlCehksx+Wz1fFgrhlbgCcKmEBP3kqkOS/RvcDsF3Jd9uW1DO211qNZ10b8eiN++SI9mlf9Rk/+S9uJqMu7GEXBLK9lfYQolqkp9FPPkRT08WNrLT6nZrJvGHvX8SXVvZOZRQwLl47n4va1zyPpH4ccknZbf6xNtXDTt4Q8lXnhn+a+xv7N1OSuSfHFflpVzN/5Aj+uoI8meTK9YIu0OI+KabfX8zstROSRiCxF5C2ArwB8FxQtyeYMcsGLEELIePHFxkpd2FqMrJ11vCkcpcDoAULIXSiR85dMlIMIFe+UfNSFgdtaNV0OycYd2QQGrzFEtvbvbqu5H/q8ugKq2bqDiMHoxuKpTqDMc0/mbkMbKi5WoJz5kGTj4vRtawx1Fr9djSZ02bQfw8BNMRo/tgZp5kGaxx0HaSbHb9aaPE1DtOM2YY2myQCC6KdmjOonOuSrDMfmnZWqIRw9f+fUbgpr/3oInAipamroNG3HduwY4uN3ACqofw2kDn+Kxr6rAhXnrJXrcg2MGJ+j8gwuNxS/kMhd2McwcUIIIXdniTIXQrcV3s0wcUIIIWRDhq4q/rpILz02SbUWSrTdlvk69U8oXF7LsKg63auum8ddFcbt4pycfh9fyLqr/6YR61gM7kfjaIyLd0wmVcIFmlULTx/P/H6NU1KsYxLBIRrcktKMSc34Yhh27rA044qiaceLlIR8525DKyRa12N7stRuY+crVjavXdh7cEVad2RwXrZcl1c+f6h3SlbvAPk6e22qtJ1N8oHG6XPtasdYYhXziSEiJyKyBPDP4JyVFC0J6eZk6AEQQsjEKSXS3b9rQTUReR9lRNaSYeKEEELIzhhauLwYuP8mbLxHsEy3dYLk1dVmYbtBnMzDwoODs0vQ7BcuZx3L3NwPgmVHmDhsWHds0CzwQmUQFaXxLdrwcSuetsRJ83xsP+2tWdV2DyYh14mIGTaQjv0UbdHxXWzNH1gTrh3btiHymoZ0h3DtjmOIoqyKD0u33k5tC47VOy849gmxaAuziXiLdNuJICLvi8gTOMHyo6HHQ8gEOBl6AIQQMmV8wZwXhbq7q1tysY1BXMNrH0JPCCGETJ6hhcsiYX89hstmMUphn2CZFteRpDZMkvsyc2j2iZKtHJfXCpeVcVjOgKujRlSsZy4npRUQkyI+xhFYeydlPXfCZ+3Fz6Qvgdi8mM2RI4qaSR+IIqrEHJizZry52Nl1fOLEP01EQyPuSbqTcycagTLZ3jkk1S+AcU7G/q6aHJOJsJsJr1b4jDknQ1h5ECmvjCvSCKCogcr0Y/c3+7XdlVbUDEOahngpIo/gLkh8d+ChEEIIIeSwWBbq567CZYkw8WWBPsg4KOHeJYSQQRlauFwN3H+kq2BOr4hogpHVrgoCZNJuv2hZ1+rCzevUndnZZT0zQuUcnSHHQYRUL0p6cVE1Ew5bx6Jp6LjP8Jj0GQXRNOS8EU2BxqmZ9dMKE+9425mDborS5LNsXYtm7NeIempdjUEs9PtHsTEJ8TYiY6vvjvBtQdxecyESzgWqolB51/Rtnw/H1AqLz0XTceNdlv8EDAknhBBCSGFU9TmAywJdfeDDvW/LYlsDWcOyQB+EEEJIEQYVLp+tjldD9t9GUwGxZzGbR6EydXCa3JdmB1tfpauf+srv15nO0IiWuXgYXJj1vHGCAoDOnCAZCuJY56Xdt/YiZ5IX0ua+XBcmHvJGuvYkuDeTecodlx2FZpJV6v8F96JpsBVqnbwUPXT1F7a2oeGpGzRxf1phMbgwpYZW75CKnTafppkbAAIxDs71w8vnY93RDY0PDX8FuiwJIYQQMiylcl3eyjXpCxY+2OpI2rzwofPkMCgh1hNCyKAM7bgEChTouU6IzHNPbtaeJkKlDR3PnZe5kzMVLdMcm70uz9oIjLmT0oZ1q3VJihEmM+ck8n1mwNW9VNCEF+KswBnclV7cTMPGw1iz/qwDcyP9zRatsSJlV77I1DHpity8y8Kx30ErHzaeLC7kO+an7HI+2hBvZC7JeDxmfMGJ2QoFf2eE0Hh0nceAUKQnE2fHiHccrAB8MPBQCCGEEEKWhfpZ3HI/VhMn26ZI6jVCCBmSMQiXqwJ9XGyykdxYINLWI+15ulu0NOKlfdzVVX2EJgTcFOQxQmQUEW1Ydgj3jrktZ9ltEEO9wFib3JmxD+usFD8Gk0szujJNDs48ZDyInZ3h6uG5vlnuC5XuUUEFqfDXCpX3jxNRUp3QmAmWagXLxFHp+xf1gqjdzlYlD0KnHXPd0XemegcB1YayjwyKloRsjdXQAyCEkH1AVVcA3hTo6rYC5GKbg+jgEhQuCSGE7BljEC5LXCW62EYjnW7ILqelWWqzT509d5Oq4qmj01bytrkm0yI9moRtV9lAQ8MhHNw6MDNXpn0+buNEVNGu0HVJXZe2qFAUNjPW5nDsyMvZu32zXnMXZRQiNRUVY0EcTQVCDT2boke2+I4puqPV15kjVJr7ecGhvNjOiB2V17AERUtCCCGEjIsSwt19EXl4i/2+vfWRpDxnmDghhJB941CEy2sJbkvJRKUuMTEJDb8u9tk7KussurhVTRy6VrhsuxhtFeysIrbOvHhohMIoamauS1uAB0a4jMKbdzzavuqZcTD69WrzQ2br83GvcVd2IiHfZd6+nR/znGk/ipewIqUXKvNK4uG1D87LKGgah2RcWoM0A8ldlmi9RHHbzKnZLv5j3ZjjQUTOsPuTb0IIIYSQm7Is1M+NXJciwjBxQggh5BYMLlw+Wx2/wo6TCl9XBCgVLR22yngfHYnPPqoAACAASURBVGbLXnkpqSjeIWCGEPF+4dIX5qnnfl/jAkzCumcm3NuIlEkF8Bkk5MwMQlwUMueuoA/EuDEbJ6UbW+bGzIsExcrmzXE2ByzxGNLjWyNmxudsiLUhCbsO6+zudYfQ6EVJE46tsOJkCBvPclz2LjDh4d7dmYypw3Vpq6d3Hr+m248En1j+fNhREEIIIYS0UdVXKJBDHzcPF1/sYhCGS19ZfSguBuz7kKHDluwLJT63yUTpUJAG4RWAD3fcxyWA+/nKLtGyeRxCflMxsZ0Ls9kOcCHhldm2VkCgqGsB3H+NYixeN+xoJ+0ihFcrcHXkhLUqz50YwsHhhMMYu+7FR6mdOIk5tKrduqsjt428c4NV8bcVnGgX1jXjTV2Uvk+5ak+FzgG8a7ybAqCW7jDvxuBpVvSRhXVrrr+35WSVK4jk7k9XnMcdnzsO1RqCyoiXFVQVIn6+EG6tKOkSlwqMK1YFkrhS4V/onuMKb4IgZqqfyDgvV2vmozhP0PG3VJjXcJ8bF/52GydtpwA+2kI7hBBCCBmWJYAf7biPD0Tk/RuEZu/acbnccfvXcTFw/4fKKKIXCdkCFOFJL2MRLlfYvXDZEkfXi5YO9QKSSCNe1jVQtbyqjWInJmq61u5tajQ6VlVZ8XKN4zKKcFbcCsJhEOH8wGoBqq/9vkaMjAKcNM5ArQDMGsW1RhQyNYie9QyoFFIrtArHEcYksHkrpRaoiO/myrlDAe+07PGlRmXTPm1fmE0th5q+APYZqSFxHm1ez44cmtHlWDdzpkBqUvb9xArs1iHpX4+kQJHfTqwwGe4H56VxZkqdisYjQEQWGC5E/AVcCNRO8jf5YyNkCPijgxBCtstz7F64BJwYubxuIx+t8mDHY7l2HDuGogMhhJCdMHiouGdVuo9NK4gH52UuJqZ5Lv1tjPdGEgLeCpn2D6xQ2RTx6RP2bCGedni21nPvpmzaTHJXmqrg7jkfdq4zL+Z5Z2kQIusjoD6C1Hkl8xmkvoekqniWw7IJDfdh4XXVhK+HsPPWRJvjjm7XNLxaE6dml7rb81wrbDyEf9fN41B0JwnxDuu8gGgrldsw8lCgJ6sMrrCPAcg7n7fS5LJMhE4rfAYPbu2XdcdblLMB+nwB4F9U1UequmTSebJv8D1NCCHbRVUv4M4fds1iw+127bZ840Pkh2To/g+V1dADIHvLSeH+eD5MehmLcFniiy7mfLGi5Tq3ZYoXkqLA2Kw1emVLdmxXDNe4fWjA5r9cm+NSKyhszkmfdzJR5kL1a/jbXPA0hXlC/zFf5cwLlU1+TA2h5jaHZRAirWvRiphJsR9x/2J/XQ5HoB1C3ee27BF2M8Gv/YpYQTGIh+Fx3oUJgw/zLlakvDJCa+60zJbOd0UXuTvTxuaPA+8WKOm2vATwsRcsLwr2SwghhJDpUyLf46aC5GKXg8DwbkugvOiwKNzfptym2vxdoNhDdsVJ4f548YP0Mgrh8tnq+C12nIzVFgGy4uC6AjzduSzN3ZYoaYRJu5g9k23qxmkZnJl1vV647FysIBnFxXvIBcQ0USXgnJRzSNgHVbKdEy3nWX+mj6ujbBz3gKvg0vTFf+pZ0099z/VlnKGddBorbyPgNfkmo9sTlctFGQXeyuWi1HyOQhNWePSiZeK21Gx+ciE3G04UV3N3ZZfIOTrxskQ1TMtCVZeF+yRkKF6W7IypEQghB0AJ4fK+iGwiVO36wu9yx+1fywgcn2Ph/ZKdcd4JIYfAWHJcAk5h/2DHfTyHKb6hipi7MoiUffcbEdOJjjWkS+aK2/Q9IwI4l6TbJGyVFP/pbLJyochqcieGVI46i3VmXCrGEN4c1l8hFNrRmOPR57ScufHEIjwxlLuCyMx1V/ljqgH4/JaiPhS6vgep/j+oClBdxbGJVt7L6McQ2pUKIjctNBNU5msEvFjIJnNdJjlBnePSFeqpAK2hIv7VrM1czFr7q2pTcMeKlZILjtlja68VQGsx757MrZq8q4yAed2xl+G0YF+f8ESMkJ1S9IcV2TonQw+AkLGjqm9F5Cl2X3jvEdY4hURk1xd+X48oMuU1dv97LnBSqJ+bUvL7ddRVmEXkffQ7UF8xVc7oWRTuj7/9SC+jcFx6VgX6WOYrupyXXY7Hdc7M8HxYal/sOrgn2w7MtDGtu/dPN8pclqi8o3GOltSpMyQh2cH1WM+dG9JSBwdlCEU36+oZROdmm+DMhNflgtPyyLkY8+0SB2i4nTtn5o3IhNqwqjcc3D+XhGvXaVuxse7HmrSFRtTtlKt7QsIVLiw9hK+H3J7SkbFSeh+MAn/iUepE9I2qPinUFyFjofTJWulQNrJdToYeACETYQzh4osd9z+mc6aS32UnBfu6CSW/Xy8K9rUWEXkoImci8lxELkREAfwlgK96lr8UERWRVyKy9PueDDV+0slJ4f4oZJNexiRc7vyL7tnqeAXgzU322UTQ7Fpf+3LiredyEbNuTIIhXLy7nyoW04nh4XkodB7SXc/MPkAjZIbCPHMjRLp9Yjh3IlQaMdAKp8kBB3E0Fy3nZpmZ/TfEOF2be6HwTdd2dtLy8HgjYGrvToiiZ0c4t4Zt1gqnzT4S+gj5MeNrlYvNdkym/yS8fFBKnoSdF+yLkLHA3GCEELJlVPU5fKqoHfKBv8Dbx64dlyXE2U0pKVx+WLCvm1ByXKuCfbUQkfdF5FxELgD8BYAfwaVFeHCDZj6Ac0X/CMA/80Lm6TV/U2TH+Pm/yeu4Dei4JL2MRri0OSh3zHm+4jrXZef9LoGxV3Q0i98uyZFpHJd1TxtR0FqX67LlyjTiWBQNZ81z0bl5ZATOtCgNVFwV8ToIpvNUoDRCpagRL+uZK8hTz7JtjVjaeYztOY3P2XydPtxe+0TGmH/SthuETPXFdq78UntnZFrtW4PYaMVECRW+Q7/BiZnlEu0Uk9MXX7vyasb3V+YCHT5UfFGwrzGdgBNSilXh/sbmuBzbeMbOYugBEDIhBnNdegfZLn/8vxhZuO2qZGdjy9e8Yb7TbTKI0BMESzjH5xfY7nv8AwA/B3AhIqdbbJfcjNK1DS5H9llGRsZohEtPCdflEh0C6UbiZRoF3NyxoqR5Mhc5o0CJtphpRc3u4jxAU/QlCIBr3JZaZeHZM9jxJ5XHkzaCeKmNsKkhZHzeiJeoIIm7c+7FyrkpDJSHipuiPR2Hl4wLQGdYdocQqSFnqG0jtNPpVDT7J9XQzTwk+SZtuLcTKl3houDiDIsXQI3IiVCNHIrWsSQh4yEcXs24c2fnoJwU6ucNv7TIgXJRuL/7BfKu3YT7Qw9gYpwMPQBCJkSJUOpFz/pDcluGQjEljCiBMX2PAYUvKqnqqmR/QBRnV3CC5S6/u+8D+LmIrA7IfXky9AAMi8L90W1J1jI24XJVqJ+zrpXXipf5HSM6xvUd69Tso7VbAFNRvEbLedkmF/EUGoXBRrTUOhTfSUbsH9pQbS/U1XM/PlMVGxLFyUacE0CPmjau7gFX70GuvtERHl4B9XvueRuSbh2aHcfXLc1ZwbBxTHZvGXJT+vmKYm/HbTaXLZFQaiCIkNaBGiuyz8xYNG4nwXnZcr/atlOXaJJPMwrK6eGPIO3lSaF+Lgr1Q8ioGKiwwih+8A3gUNkVLwv29WDgXGCLAfsm5EZ4Me1GqaJuQd/n6WKHfV6q6nKH7d+WVcG+RvE9Zjgt2NeLgn0BSETLUnnvARd6/2qPzhXWMYpj9ELxR4W7pXBJ1nKQwqV3XXaewFjxMhEycyHSrIrbh3V9oqXZvvaqpYZK19lte2CSLZW5NUJgV57LGMI9b56rjfMxDy/3BXe6C+3kjkSYnJlubBLFQbiq4/UMArk+TaNmRx7nMYwLpt/ssRf8BEFQBBK1T7wwGUPIBfk0x3DxGJbujze6H4Pg6LbTGDZuB9wlTppK8LCvm7nfmdsSY8htSQgpR0nhCwA+Gkki/MXQA5goiwH7HsWPK0JuwK6difd7hJVv77DPUbktDSXH9WAs4eL+9S8p6K0K9mVFyyEiJB4AeH4Azsvr8uWWotPktWMoXJK1jE24LPmGPe17oiVaokOs7BAnY3GdbH28uZMGleVpVPGh2sE5eeRDtGdouScTbc0KlE6clKt7zfZRhJwBV0a8DDkudYboQLRiHMT3P/ft3jPjsXkw5y4X5hpS6TYLHQ+uyUSwTPNeds5dniNSQp5La2m0jk4jQNrbxJkJX3wnG08iSGZuy75Fs+OJt8YdOywfDj0AQg6A1QB9DnFymnM69AAmyiBOIy8SMLSfTI0S4eLJ32SBdBxjFS5Xhfs7LdxfH6W/T4u9/l5Me45hP/sfYLzv+W1yOmTn/rWmcElGx6iEy2er47cAXhfqa4Wbult6IrADMYg5Fy01vd8SRe1z5nGrb+u4jE2mgpbkjsu8wngQJesjbwY8ah7X95C4OLUy4qXJWRkriM+B+siFi9tCP+oL89jK4jHHpdune25t7klAk/B4MTd5uHcTqt2Iq1ZQtH3YB2Z/uQJC2LZ1S7YqoOfiYgjN12SY6djysWRibDK0/E1Gx2VB6CAiQzPESdt3hwy/8iJYSYfKLin9+n17IMfs6QB9EnInfDqOXf/GyIXKxQ77euMrpo+OQnNt+WjoMGLff8nQ2teFU8yco3yF6S4+PICCPUNfUD5DeYH60qf0IKSXUQmXnpJv2t4PBslTIGb3r3VVZqJkuB+rh9fp4yhoKrqFy65CNR2D0zy02BaqievS3IuJi1Tn0Do4In2fseK4dXFmxXdsm51h5qYaef1e1wGaPoHg4nSFd8TPiTkW43p062fN2PJjjM7HvIiRcUXqDECojN44SzWIl0kldncr8c+nSucgjsEeT3585r7OXVtJJfhUxB1DkssDgMIlGZrVQP0uB+oXKOOCKsUQhcXOS3bmheaSP84J2SbLHbefh3nu0nE5StHSUPqzfejvktL9L0t15C+QfbdUfxtwPvQAdswDX7G9OF6A/2KArlcD9EkmxhiFy1Wpjp6tjl8BeLrp9i3DnrnNHZbWOdlbQRztdUl18lbv9hnjvtRGrJNknQ1htrktM6ExCpJV2mZScdsLgzp3wmMiSHaImPURJISKW/dl/Z573CJ3RrbDpoOI2Tq+2oevJ8LkDNeLfVYctG3m4qQVf90LFEPEg/gpHa+NFSMTx2w+TmSCcIfo2nJ+km3iT8rGcCWZHDCqWizqIOMDEVmW7lREnmB/3JbAMI7Zj0rld/OCzNDiACF3YVmgj0dAkfOK5Q7b3galhdUPBxR7zlA+pdKyYF9jK4D0oEAahqE5K+0iNukAhmA1UL+34WYRu2RrjFENKX3ifw7g0q7I5a48P2VnEG/usOxxWuY5MXPnZt5X/6jCukxAQ5WJapmAmYcs5yIcBKL3vMvSVANX50aU+sgV26l9DksvSkoiZjYCpsS8l3Pg6r3Gvdl1LIlQmt82AqJ6EdNtPzP7Ij2+PCdnq7BQ1kffvIU2wpzYPJiigNRuDlp/TmYcQViN/eTjyF/Tvtd87xnK9Th0WAYhgdVA/X5UUrz0oV5jcnBsg4uB+l0WSua/xH4JzeTA8BeHdl2JeeFvdymsvBl7WKWf643NIVvii9KClr9w9KOSfQJ46ue3FKcF+9qUfRcu7wNYlRIv/TnECsOZOMbuICcjYHTCpXdBXl674fb6u8A1DoIoH+XCoiY3CU1IuKK1i0bZq1O0rOuuBq0bzzoAc5dgLsSZwSc5G81+Sf7KeSYaWtFvnjYHuPW1FTjbYqHU76WiZW3ascfXK+qtE/B8gR2Tl1LzVySfDy94iqbirCTCZu4+NQ7OPDzeVFRvia4mJL+Z9/zY/fpWOHom2g5LqatL90vnbPP9nZbsk5A1LAfsu4h46V0xP991P6UZUEh4APcDZyfipYi8LyLPsdvqyISUYtc/kB95MWuXwspUnM9DjHNZ0IX+EMMILsvC/Y3xgtUhpHcqIl6aavFDvc5vCudrJRNldMKlp/TJ/xNsKpZ2iZWZ27LJUelFS1W3+FVR/OwIE6/rbiE0XRuckVZYsy5ApNsGAS0Wzjky4dteXIwi2dxvE0TGmRHS8grhNp9j5auT2/1mzeObiHAx9L3j0JPt8r4aZ2gixiaCrnE+RvU4d1yaXJ6JC7OZL41zOzP7GOGzPkqFUJsjNKkGn+W37KwmHvo5GE4L9/cErJBLRoIXv94MOISPROTVLk6UReRERFYYJn9SKUpd5Mn5AO4Hzsk2G/UCwAoULcn+8By7NUjcB/AVdhs6PAl3kv8+K/2ZeB/AV7su4OLb/wuUP398qaqrUp2VEoFvwRjF1F1wH8Bf7CoNgk9zsMKw8zmJzzPDaugBHCod1rdRsELBXCHPVsdvf2fxqzMAP9/E16ZBGxR/v+cWfhuJ+wW5S5KUiXF7RROF3MK6LP2GtoKQhsduOwmFZewijZVTdAat0Rgc4SOepfYrZgCu0IhyM9OWpwYEc2j1DsDXzbaA21+DG7KCVHCPk2re2fEBHYJdJh6G49N5Kjpm1dbF9tEqztPnSrXCqrg2EkdpcJ1KKuqGXJixsnoIJzcOyjxE3ea3TELDpTmuZA4G5wLl/ibPRORJiTAYfyJwED/I/Un26Q6aLnnV+3TAk+ilqi4L9fUcw4ZRfwB3ovwUwPldr4R7Me0ch1HU5RXK5zoLfADglYic3fW9emCvWYsdfl5ex0nBvh76CwmlKPkZ2ouqvvUO4qm+t19OzJ10DifklubnPmz8bJvz5T8bn2C4c8fzgfodHSJyMrG/hbvwhf9eOgfw/K6/kfzfxjnGIQAvhx7ADbko2NcTERmi8GMvqroYqu8xC5dFHRnPVsfL31n86hwb5HaQa3SkRJpTryn6lc5t2aiaQbQMgmevuzAqmpkTEFWzXmszOB86reH50IZt8iob+ByCK6+bKaQ+gooAlQB1aLNy+0WvrkLqOVRmQPW1O5B6jpj7EbUfQw2vXsI3lvXdLVD2i5Y2rNrMUeJCDYJlJhDq3LshZ2Ybaaqh1yGMfGZESCsaB9el+rXGzZmEiWdz3pdnMxcqWxXGR2GMvijY1324L7Gd5q/xouVQzq/3byDAvdqSiHuC4QSVbfEAw+XfWRXsa4lx5H/8CM6B+RpuTKtNw6G9Y3MBJ/6M4cS4FEOLzvfhfrCfw/24fr7pDzsfav7ILwdxQWcNJ5j+5+V13EfZY1wV7Os6pixcLocewE1Q1ZWIvMQwf0/fBrDwKVCe3EXkMmmFzjBclE5Rt6XnpHB/N+EEw+WWHoIHcGl2nviLLyu487KLTXY2KSweYTwFSV+PPV9vByXHe0jnz9cyVuFyqDfwqQJfXedvczKherFRWm7LqCMilbukY31da9Qa4/59vUqIL29EL4FAg3gplXc1Vl54FEBq47xMRU/RuZPeariOqytEITSIq3LlRbSQ4/FdsGY696EE26YvUKNonJ1RfFOozhsHZq+DMHdC9oiWXQKnCe9OiuTYXJx5DssgatZzL1QaAbJLODU5LSVWWXf9hvdEIl7m+/XmujTCqGbrtWv9IKxQVuT7tj/RPNu289L/OF9i2B/mH2BzB8K3MK4ffGTHqOorLxaO5YTlA/jiA+K+pF769a8AhL/PE7+8j/GMuzj+R/olhk8/8QDuNfuRiLyBe636zq0ewr12B/u6kcNCVZ+P5O/0NkwtrBJwYt9fDNT3fbiLSd8VkRdoxJ5rf2uaC3ALjONizhCFJE8G6JOs5z78hWUA8J9l4f08tfOyqeTrjfhz9Kl+f0yaUQqXPnS7+I+2Z6vj1d9a/OolpLkqeL2IqV48TD2RyW1PdLQ2yTDNuusdna6tTNyLYeBBMPMux7guuB2DeGaEScC7CwWQKyfGir+v70Fnf+XCooOwGcPG4durIVpDtQKqd/4gai96OsFV1DsttQb0vY6DqlK3aUehmyhaJrkjqx5RL3c02nVo2g6OS+t2TPo1IeDIxUcTVh7FSZuLMhcngSTXZT1HDEfvvPXHnYx7MIa4mPAR3JXy021cYfaC5RmGvVpOyKY8wXgL2HyY3ZKUsbm5glN5DD+8CRkLS4zD2X4TXhSuJr0V/A/9LzH8fH/bL+Ei3Gs0Io9ljELP0wk600gZrHt+Sudll5jmhRiAub8HYRQxqD0M9eF8ZgW03sjtBOdQ1HC3Z+dElzOmRns/PN4M48YLxXlaIdAmFLpVrRveOWhCr1sLIF5gE+9mFK0gasOpjaPQFsqp83yQM6D+BjoLzXQ5Ha1oGd6qSfXuKl382HIHphUB47yZ0G7JtpNcxExEQ5PP0lZ5tyHe9VEzN3m19cTxaV7DTmFSR6BXOvyJ8usBun4Al2R9JSKnt6maKyIhTOgCzjV6nWg5xHESkuBzwb0ZehyF+A726+9uqifim/ICwNOhB0HIHVkOPYBbsBx6AHfgHLstinQbPoATevJlbKLlJYZxW5LyPAXw5dCDKESRegY7Yt/P80bJmIXL1RCd/mJ1/ApyzQm5FSdh75t7Zhs1TwWRsl2BvC1gZlx0D8Q4B+sQvoyO265FmufXCWRBdKvn5v6REe5CNe85kAt29ZFvYw7U94zImNMWK9MQ6iw3ZEdIteRCZja+OEdAKu52hZFbQTLO77zpwzgwJalcHsRXmGMAkglOxE5kt1ZcNdXdO+esOMsB+/4Qzn32l77i8VJEzr2YuTDLI7/+iRc7FS4k+yNs7rJc7OgYCLkpkwuhuQVPVfU5ul0vk8Qfzz6Lzuc4rLxiZA/x7rUp/Z1e+s+WSeIFip3mLt9jTics8JCbcYFxivy7YDn0AO7AZD+Lp8wo1JAehrPDa1qxLeh8m+3aqI9RiPQiZpezMhcyw/qcz/701y4AvUyVR7gclSF0XGdtg2CkSyQLwts8dUoGMa5ruQrioxcr6y5XYebCfPcN4Oq9VOzsnjy081uiO68lkIiXSRXxRCRMRUGBODGwc16sM9MvQTisj/yctF2eTfg8fIi8Zu1ZF2hTnVysWBpzWSK2HUPEWyHogzGWD+kP4ITIL+DEzK/M8k/8+u/iduESIQxrSj9myJ6iqk+w/+/F86EHsCOWQw9gR7xkuCLZI5ZDD+AGjOUc7Nb4tD+H4ibbFl9OWbAmN8f/Dtn3C9ePp1wR3r9GjDwpzGiFy2er41cY6GrDL1bHF1A8ztfnAmbipMzXZz7MTULDr3FcAvGkRfxYjBvRCm2dImQmtmWOQ7Hh3NeKl+9l/Tghzt3Ci3RHQP2ed1ma0PH6Pbdta3Kt+9GKltbNmImBUdSbu/6S0G0TIq82JDxs3yG8xiI9cz/WI0SBV9QLkilRIo2CoxlbssUaS2u05gaB0oa8dzlMh8F/wbwcehw7Jpwc8oc5GQvnQw9ghzyd8onrNTzBfjomzoceACFbZDn0AG7AcugBbANVPcN+pQbZJa/Bz9xDZV/PIQB3XPsgzC6HHsChMVrh0jOkePAEetcPDG0V4OkLDd8wx+W5axVIi84gFbZ681X69bUpEJNUKM9yVOrM57Kc+byWVgzMBE7fr+gMUr/XuBqTUG0vjtbt4jw//Df/31XzyIuWSc5LW7gmD/EOYmbI19kl3oZ9pBEl81BxI3ImBXtsGHqr72x9fc8ft39NkpD8RnSVRIg0AjDs61Kl4xgH+/BF08elzysIsIo3GQn+PbmvFwzOhx7ArthTx8TLbRRKI2Qs+AsnUxDR3uzZ394C+yvKbItLAI8YIn6Y7Ok5ROB8H97X/jN5X8/PR8nYhcvVUB3/YnX8Fj0/qjaunRO2vyYUvC9kPOezn/36hUIeJ1Wyk6Izdr0NT05FsyaMuUuAQ7bfLNlWtPJ5F0MbRpAMwmHtbuXqHqS+B6mPTJtr8jWqvEjDxLMQ8azadqvYkM7Mdo2TVBLH5724vcSiRFbctKKlE3K7nKdJu3YOQii6ztFfHAnNeO1cJoWIsuMcR47Lfc/dZk8QGJZDxsQ+JuX/co/dloF9c0zs4/uQkCmIA3t1TuJFiwX26/Nxm1wCWIzkO3I19AAOmH07hwDcBdApfOZuyunQAzgkxqGG9LMasvNfrI6fQNeLNH06Y5cAeV0hnk3Ey89/9uvngDxNxErpDGJPRcp1LkGzTvIK40l4eSM8ih65fJc21DzJdZm6FkXnTuzLnaIJ1ZN0HGjabDkug7AXwrtNyDqCq9GGbltHZdU4KMN+MQw8jM8Ji+0K4tYBKek6DXkww3ikvT0EYsPn4xjyUPhUzByR4xLYzw/pJGxhQi4McgD4nIKPhx7HFrnEHrstA/7H+fnQ49gSXzK3JdlTpiAK7tMPfQDxe22B/RNm7koQLfl5ew175kJu4c8h9umC4SX27Dek/724T+fno2bswuUYPrTPNrVYblJkp0usvCmf/+zXTwG8cI+yHIpq18GIaj0hzh3ru4r1oM5DsENotBXgKl+8x27rb2ORmzmk/kbncf3wb/w/K0BeJuHhrbEa92UrVLwJY5fclWmel9b+lXOFJk7Loyw83AiPsXq6raAe8nZaR+VR81w9h/glFSPD+OcxJL8zhH1EwqU/UXgx9Di2zFlH2MLe/VAg00VVz7E/ISkHUyHVOwum/rq9wf4IsIQk+M+iMZ/TvB6J827rULxsMUbR8mLoAfRwEO+ZPUsXdLaPn2X+/JxmlwKMWrh85sK1B30j/GJ1/BzXfGCsEx/7nJW3bc9wCoibmyRUvH1fr3FZrhcvvYsxcSiGwjY+9Nqvj67KVqGfDvGz9+DlEVQu2wV5jDvSHkeSvzOMY+YL6xjRNoiW9ZEXFE2BnjDeq6OmjwTJjqUnRL+Vy9KIpUlIe+pGjWIq7GuRhciPoDhPxin256ThpcltGfHr9jUsnkyTR5j+e/LpAVZIPcW0Py8PRmgmB8uYP5OWQw9gl1C8jIxRtAyOsjG+NquhB1CQRxjna3ATnnb91toj9uE1Gj2jFi49g3+AK3C+SZ5Ke/86sbJr+01CehzzCwAAGo1JREFUxQOf/+w33kKxgHrxMqk8nd4P/1ohyde4+CQR/oKg1xU+njkskxyQ/vnai4Lhtocf/s3/+y0gC0AuWyJrqAhuC9isy+NZW1eky7nZLpIT2p65RY/cfkAqVMYXqz1Lrq8jEy5vRdF5x9hsKL0tHGQXX9ncbysjyXEZ8D9iHw09ji1wifXHcVpoHIRci/m7m+rJ0WvsV9jTRvgfflP9vPxk38PxCPE/qMf6uTpmUXUrGPHyUF1LrzFC0dIwxvfgaugBlGIPfnO9VNXToQexS/x53gLj/R7ZC8alhnSzGnoAz1bHKwBPgc3Fy9s8vimf/+w3fHJreZ0W7PG3NiRZnecvdU+mDsqupcl5GdpunI0xt2V9z4iWtk8fHm1yRUrt21zDD//m//UKWj2EyutWrsfg3PQipiTh2rOOYzPh5EkRn3xbNAvQCIU+jBv1kSs0lIiptiiPmfPkvjRj9CHo6fxW2XjSMUss1jO+P1X/Y/bjocdxB8LV7V4nkT/GL4uNiJBrmLA75aArpE708/LpniXRJ2QdYxRnXuxjaGUX5rttzGH7u+AFxi1aAuN0/S6HHkBJJnoOAThRfsqi68ZM+Px8MoxPDWkzlg/y866Vm4iTm1QUvy1evHzkHIpGtMzzQubiZV65Oisg4wZnxcngmrQOwkaMRP1eIyjW91yuSxsaXs9Nbsg1oeKeH/xbry5+8G//nw+B6nEqPIaJm2XjtSHjVqTsCosP5PuF4zF5OhOnKdwc2EUruKI8qbsz5KyM+T2D2GvEZLmm6I5M4M/TuxSm+EW6cUiOqp7hcF0AZIRM8ORoTBVSB2Nin5dP990hQUjGGIXLMY5pZ6jqW1V9BOATTOf77bZcwjnaR39Bz4tmY8qz+HTsc7YL/DnElMwUwUl8MK+VPz9/CP5u3AmjV0aerY5fYQRfXs9WxxfoqRq1jRyWNw0Vt3z+09+8QPwRa8LEgzBWz9ByXob8lX05LzMHoMA4AWuTI9IUBZL6CLh6D+3COsaZeF2Oy4wf/Dv/xzmAbzpXaS5I2i3Xhb0H12IqZkrH+KJoWd9LxdKWyGjFXaQCcHRvmn3q4Fz1OS9toSEbkt+qiG7zeo6Tif0YB26XR2gBfgmREWHEy7HnvBxl3q6hmMjnJUVLcnD43Ltj+zw9KOEy4J3eDzEusWybvATwcGKO9vOhB+C5xAGmnAl4M8UUxMunqvrwkETLgAkbn8LrNCnGq4akjOUHzxMAl5tUC2+QzudvK1L28flPf+sVtFoA1WW3EzEPG/ch0D3FeZrcju19m7yOs+iqFO/iFF+hW6Ij0YRxh0I+9dGNju0H3/7fX/3g0f/2EJAvY25KwB9D6qpsQq9NbsuYY7M51jRE24uWmRAb80z6cHf7uNlvnoqiCPkyG5EyDVE3TstEtMxC1+t5+nh8xXkS/I/xb2EEFxmu4VZ5hPwX7wI+ZQQhY8Bc2R3rj7ux5+0aBP95+R2M8/PyMUVLcsCMSSg8SFdZQFUvVHUB91k5NkH5trwB8B1VnVwEgndddhp4CnPwxeK8eDnmC6CfHPp5hHePn8H9NqbxZUtMRbhcDT0AIFY5P+97vq/gzrp1+X53wYmXWLSFRqBLyJSQvzEPKW/lgbSuP+uazLfN82M6B6OE0HE1ot8t+MF3/ukZUH1LIG+SokDRndh2jiauyvo9IwLaefEEsTOGuB9lc9I1j2a/GFpfmcJE+ZyEOayaeTTzK3EbaR/XyPEnNScYb36iL3EHEcV/CZ1iv06iycTx78sFxhdaN4W8XYPh3V1jEp0v4X5Qnw89EEIGZDn0AAxjElEHQ1Wfq+oJnFAz1XOvNwA+VtUT/9k/Sfz3w5AX8D+e8vxtE38B9JsY19/EawDfnJiTeKeo6kpVH8J9fo3lfG+yjF8NcYzmh8+z1fETrPmQ2NSNuc6Beaeclz+9/wr5VZikYE56K4nbLy9yk4tqcxN23hVebt2beT8zI/zdnh/8u1+toPIQwJeJOxSVKWLTJ2SKcYMG96QNEW/aarZ3BYbSCuWzdL86rxzet6CZk6RSefCPZtvn4uUEMPmJxiTuvQTwLVU928ZVWiM4PMZ4jpEcOCa0bmhXcBDARp+3a2iMo2ho0fkpgEn/oCZkG/gLLWP4Xr/k32OKqi6NgDkVB9NrNILlcujBbAN/AX+IENiP92UOt4WJuhk6JDnka33Ii9Xd+M+vBZzY/CXG8T0zOaahhozEcWk4WycurnNbdm23bT7/yftLQD5uFdxpiZdue4muyb4w8VlcJzAuRvRVI7ei5zyGPYvec8LhLR2XgT/+7f/17R//9v9yBp1/R+r5pdRHkKv30BJPs0WsMIlZHH9SjCcPf6+P0MrXWYcQ9CNzrL56eqvKuX0ur2RunaFGpEzC2s36CTGSK+RBsFx4N+jW8ALtuT/G78B9CU3lRJrsKV4IO4ULTSktYF7CifkUwG6IF51P4OavpIAZPiMPPvSOEMMY3EL8DO3BCwAP4QSApxhXpAHgxvMUznn2cB/FNh8CW8qgEFx8ywJ9TQ4TkvxNlHf02fO+MXxujh5VfeWNNCdwr9kncBFKFDI3YD70ADbh2er47e8sfvUGwIOhxwIAz1bHz39n8auXAD7cbI+gTgpUAck0qK51d+Xzn7y//JPffQsofg6BE75afYRQZ9e/6gwQbQQzqN9PzfY1ojsQNYAKCvX71X63CpDaCXwSK9UgdrYl9+Af/wf/8/M//Mf/3glQLYHq20nBoRBy3SVmBgGx9kJjIHeEJsWNzH5B7w/5MpPq5bOsvzBXQQD2btUwt+qdoklIuHVkhkrw0xIuA/5EYykiCwCnAB4BuL/DLi/hQr2Wpa76eZEm/sjwxwq4nJjb4GJL7ay21M6hshp6AJvihfqViJzDJbF/hN19f76B+6G/pPh1e/zcnYvIE7jX6wzABzvo6hLu8+rJHT8jV9sZzkZcFOwrsBqgz31nNfQANuQ5gPcHHsNy4P5Hj//8OgXiedcjuPOuXXxuXsdruPf36lAu3KnqcxFZwX1XnWL75xiv4b6nlltudy8JBRtF5AQurd0uf2+9hDvnW+6o/YPAv2avYC6WichDuO+f9+HctMQwCeHSswLw0dCDMJyr4qvrBEdVNaKk+nUAIIlYuSvn5Z/87tsFFB/FzhReXAxqJaJGKQJoPTdCpZptAaBuRMkowAkEiiBoahAo1bQRFoURMrfDH/2H/9NbAI/+8Jf/0SPobAnI/U7RMi88VM8bQTC6KH0IOVyIeOIYDYKu39+FiM+QFPkB0BToyfJcxnDy8JybK7Gh9TEsPLhd0RTymThBSAHiCWZYNhT/e7mE+9BfAXg+hhAF4+5crdmsOPY1IIeBT/5/BuDMnwyFH3YPcbcT2pdwP+5XY/ib2ye8gLmEu+BzguY1W+D2r9kbNJ+RW/lRve+fJ/t+fKQf/7l5PvAwyA3IzjHfR/M9t4Bzs29TVLPnna/gvgcP8qJduOAGd9HtEZrvq9vOdxCAi5kP9g3/+XUKAP41WeDugn44h1jBnUcc5Pu9BNn7/iAugtyEKQmXrzAi4fLZ6nj1O4tfPcUGY+p2VGoiVsq2LZeez3/y/umf/O5fApCPonCoMAPKRUQvLHa5M4NrU6ugcsKJdE60BBQSRU7NltD3doXLwB/9J//o+R/+4qMT0dlzQD7MnZZNVfA0b2cjOjbh2K2Q7ui6DKHlcyMumpBwuLmJ+4ciPEa0tO5KiS5KI1zWcz/bQWjeD+HSkv8g9D/OT+BOMoPLIawLXKBx3byF+zy4mFpVRkKGwlzZBdD7d2fvA6lwswLwlj8myuE/3574xb5mC7OZvR8+G4HmM/MVf2QQQg4F/3mXRMIASTRM/j23QJuVuR8/V7eddmifsNFHXjx+iHSuF2bz1ncV53b79ESEnaD5fWXvA+lvrXCf5xBkNExJuFwNPYAOzrGhmHpdOLgaFXP7YeN/3YmXgo/SUGgAUvnBuVBvkcprjQoVGypurJnRYTlztxKchB0uy851u+GP/tbTtwAWXyz/zhlUzqGz+9DKFeNBI2Ii5pucN8eV5PQM9zNBUatGuI0Vy5v9GvdlFjLu3alN8Z1mXZK/UoODFalgOdEw8U3xP84vMM6/cUL2Ev7dTQ++ZoQQcjvGGg2zj3ihawXO9aigOEymzlSK8+DZ6nh0Lo9nq+MLVTweehyb8PlP/vopVF4mxXpaTj4fNh2FOIEE16AV2vKcjrUtSJM5GZNw6cyduCMen/70CXT2ECov+8cY3JBHScVwaQmPcyMoigsRD3OVzIPfNpnXxmWZFN+xAqkiawfNNjG0PNwSQgghhBBCCCGEHA5TU0NeDj2ADp5gw4p2m1YR30W+S4c8Qj173V1h3IiWmeNQfKi11F0Vs2dR9IuL3a7ueH7HwiUAPP5P/4eLx//ZP1hAq0/8sRsh0IqpR+lz0ZU5T0XcMB/1HFK76uhx3xiKPmuFlIutSJ67OBPx04mmgux1IYQQQgghhBBCCDlQpiZcroYeQM6z1XFITLwxuxMm1/P5T95/C2ABrYx4mVbAbgmamYgm6kKiReeNWxAw9/PcjHlbJjS6AI//9o+eQGffdMdsBVMzBu+4lCC6xpyUXoAMBXqMUNkcj98vHtvcF+2x67JjT1yrrtK4xMrlWWXxZB0hhBBCCCGEEELI4TA1NWR04eIA8Iuvjp/AVdzamEHFS60WgLxOQsbzytuo1ouPAETnjZDpw6Hj/Rhqbu6rhIDrosd8/nf+/qvz3/3hQwCPW+HgITxe50B9rxXiLomQGEK+m/lqqpc3blWpj4xIaXNZ5jkwXVVyqe9l8y8d9+m+JIQQQgghhBBCyGExNeFyNfQA1nB20x1C6HhpEfPzn9x/i3p2Cshl4ywMeRxNVeyWkGmrbPvcj3rUfi4XP6Oj0z4uz/l//vhctPomVN40DtMgOnq8iCk6T8O2Y7XwI7/MvevUhshXkDAf9VETbl5n+T11BqmdaOnE0qxQjxEtxYujolOqo0UIIYQQQgghhBBydyYlXPqw7Bs5G0vxi6+On6vi5W1FyNIC5uc/uf/KOS+ry+iDtBWygzOyK3S8DkVoMnGzt0CPfewFvYH44r/8vVeucE/1ZRBeBZXP3+nE1VhIJ+SxrI9aLsrEaamVFy1naIqnixcrg4jbODijMHx1r8ddWUW3qmt7RsclIYQQQgghhBBCDo5JCZee1dADWMP5XRsoKl7++P1XotUCKpetkHA1AqYGEbPyTkQbIm0dlWvcllqZ3JHDinBf/Fd/7+0X3/27Z6jn3xKt3iTCKtSnvzQvxNrhmu1a1dTnyfFLLuLGsPtGDE0rkDc5MIeeM0IIIYQQQgghhJDSTFG4HGWeSwB4tjpeAXh6V/dkSfHysx/ffwXIaXeBHhvi3Q4hD+5BCQJdK6x8BkQ34zxrc3i++Lv/xQpaPYTOnsaq3lmOS+gMcnUP1l0q9lh9KHjqyDTOzPqoCQu3Sz3P5rEjVDw6LVlhnBBCCCGEEEIIIYfHOBSkm7EaegDXcB7u2ByWQ+Wz3ITPfnz/OYCPWw7JmN9RGvdgLlBGJ6YXMdEIcQKJIdhRnIttj4M//K//9ts//Hsfn4rOvgOtLvPQdqnnsDkrnUhrclsmomWWxzLcz4vzxO1zd6WZ/9o4Lem4JIQQQgghhBBCyAEyHgVpQ56tjkfruASAZ6vjCwCP120zRhHzsx/fXwLyMQA0BXtCOLMRLYNY2cpvmS/zJjTchp6PVIT7g0//4+fQ2Ql09sId96zJe6ni3ZhdTksr6IrZvnFd4urIz0UjWkqXaGlzWiaFgcY5Z4QQQgghhBBCCCG7ZHLCpefl0AO4hicALjfZcEwi5mc//q0lIJ/EFWqrh6cVttsVsI8QQ8HrTOjMRE0Z6dvuDz7/99/+wee//QhafSz1/LIJkQ/HatyYUbRsQspbTsuY59JuU6XVypM5FaA2gmcSJk7hkhBCCCGEEEIIIYfFOBWk61kNPYB1+Orn5zfdbwwi5mc//q0ngDxtC2bSEiDTHJgSw6mbcPCuvJch9+V4+YPf//bS5b6sXraPeQbUcx/2bubG30r2ON7Wc79fECet09Lu7yuKa6jy7hmBsE0IIYQQQgghhBBSkqkKl6MOFweAZ6vjJwDeDD2O2/DZj3/rtBEvgVTEtM6/xhmYFpfJnIRdAubI+f0v/sbF75//GwvnQLVV173oKopONVHNcWsq9kqr0E5o0913TaZzHEVMOi4JIYQQQgghhBByYIxfQepmNfQANuRs6AHcls9+/JunUDztrmrt81XGf2gex5Bon7PRhkTHquLTEeF+/4++9QQqD6HyOsnZWdsiPb6QT5ID1OanBOIxa9dtlssyCJgszkMIIYQQQgghhJADZpLCpQ/FHr2b8dnq+DnGn4+zl89+8pungLxGMBdGd6UY9yCQi5NOwJynuS5NjscpOC4tv/eDf/3i9374rz2EVo+hFeTqqLvqdy4+5gJtnVdql2ROo/uyr01CCCGEEEIIIYSQA2JaClLKaugBbMj50AO4Iwugep36KztEtlYFbCNgWmfiRELFu/i9v/+vnkPlm4C8bnJ+9t1asXbW5Kuss/mCyWXZKsbD4jyEEEIIIYQQQgg5XKapIDlGn+cSAJ6tjlcAng49jtvy2U9+460oFlAv1m26ZG5CiRW2pytcAsDv/TcfvPr8v/1XHkLlMUxYvPS5LjO3KoBsbtCxX087hBBCCCGEEEIIIQfEdBWk6TgugYm7Lj/96a+/BWQBlTfdeRirdF1nRXIvYIbckBPn8//uXz6HVt+CVm9cwZ4QBt4OjZcYOg4jXiIt1tPpWjX7MFScEEIIIYQQQgghB8Zkhctnq+NJOC4B4Nnq+ALAl0OP4y58+tO/9haQRwAu3ZoegRJG2Ey2M+yJe/DzH/1LK2j1EFp9GXNeJnPhbztEySha1lUrdDwp5FN3CJmEEEIIIYQQQgghB8BkhUvPy6EHcAPOEUW/afLpT3/tFSALQC47w8L7wsWBZL3kQuaE+fzLB28//+//hTPo7Fu4OrpMclzWM0ht84H6nTRb1xka3iFkEkIIIYQQQgghhBwQUxcuV0MPYFN8JfQnQ4/jrnz60197BZUFVC5b4lqrorbN6VhlYtx+8dk/+OdXQHWCev4i5L10ZMKuCRVPBUwrbnblydy/OSOEEEIIIYQQQghZx9SFy8mEiwPAs9XxOYA3Q4/jrnz6s2+8AuSslZ+xszhPyPeI9Lk95LP/8fjtZz/+5x7havYd1NVlkttyEzRUYpeWP3U/Z4wQQgghhBBCCCGkn6kLl6uhB3ALzocewDb49GfvLaHycSt/I4De/JcHkqvxs5/91nOBnEDlBYDURQk0Fcjtc7UJoc8dmAcyb4QQQgghhBBCCCGWSQuXPvx6Ug7GZ6vjJdbk5lR1yxT49E/vLQH5uHFTIg0JTypkZ27MPefTn/3m20//9DceQeUTQC6D8zIVLUOBHpP107726iuVE0IIIYQQQgghhBwgkxYuPauhB3ALzsOdIFROSbC0fPqnR0tAHrtHeUVtNI+THI778LbbjE//7NefQPEQkJdiBduWaJmFlYf7rCpOCCGEEEIIIYSQA2UfFKRJ5bkEgGer45UqXkxRqOzi0z+bn4vK01aBmVZ2xsNxXFo+/fO/dvHpn//aAopPEgdql2hpi/YEbporkxBCCCGEEEIIIWQP2AfhcjX0AG7J2dAD2Cbf/7P5qQBPJZSTSapi5+Hih8n3f/6NJ1D5JoDXveHhlpaYSQghhBBCCCGEEHI4TF64fLY6npzjEgB++fL4AsCXQ49jm3z/z+anAJ4CVqLMK43joEW47y/vvfr+8t5DAVx4fRI+DkT3ZUvMPNw5I4QQQgghhBBCyGEyeeHS01vsZuScA7gcehBbReUMkNdBrDS1sj2H7boMfO8X83MonPvShtfngmWs2l54gIQQQgghhBBCCCEDsy/C5WroAdyGX748fgvgydDj2Cbf//PZWygWUCPIqUD8Qhq+92z+CsACwXmbh4bH6uPlx0YIIYQQQgghhBAyNPsiXE4yXBwAfvny+BzAm6HHsU2+/+ezt3CC3Ov8OS9gvi0+qJHyvWezt9/75ewMKt8C8KYpbORpRMuLwkMjhBBCCCGEEEIIGZR9ES5XQw/gjpxnjy8GGMNWceKlLNAOhb8EsCw+oJHzvX9YrQA8hHVfNqLll9/7x3IxwLAIIYQQQgghhBBCBmMvhMtnq+O3cILPC0xQFPvly+MlXLGWlwAe+8eT5/t/Xr0F5CEgTwF56W8fekcmyfjeP6zefu8fVWcAvgXgBVReQuWT7/1j2asK9IQQQgghhBBCCCGbIKpMoEcIIYQQQgghhBBCCBkXe+G4JIQQQgghhBBCCCGE7BcULgkhhBBCCCGEEEIIIaODwiUhhBBCCCGEEEIIIWR0ULgkhBBCCCGEEEIIIYSMDgqXhBBCCCGEEEIIIYSQ0UHhkhBCCCGEEEIIIYQQMjooXBJCCCGEEEIIIYQQQkYHhUtCCCGEEEIIIYQQQsjooHBJCCGEEEIIIYQQQggZHRQuCSGEEEIIIYQQQggho4PCJSGEEEIIIYQQQgghZHRQuCSEEEIIIYQQQgghhIwOCpeEEEIIIYQQQgghhJDRQeGSEEIIIYQQQgghhBAyOihcEkIIIYQQQgghhBBCRgeFS0IIIYQQQgghhBBCyOigcEkIIYQQQgghhBBCCBkdFC4JIYQQQgghhBBCCCGjg8IlIYQQQgghhBBCCCFkdFC4JIQQQgghhBBCCCGEjA4Kl4QQQgghhBBCCCGEkNFB4ZIQQgghhBBCCCGEEDI6KFwSQgghhBBCCCGEEEJGB4VLQgghhBBCCCGEEELI6KBwSQghhBBCCCGEEEIIGR0ULgkhhBBCCCGEEEIIIaODwiUhhBBCCCGEEEIIIWR0ULgkhBBCCCGEEEIIIYSMDgqXhBBCCCGEEEIIIYSQ0UHhkhBCCCGEEEIIIYQQMjooXBJCCCGEEEIIIYQQQkYHhUtCCCGEEEIIIYQQQsjooHBJCCGEEEIIIYQQQggZHRQuCSGEEEIIIYQQQggho+P/B/Gql9838Fl9AAAAAElFTkSuQmCC;strokeWidth=1;imageBorder=default;imageBackground=default;" parent="1" vertex="1">
          <mxGeometry x="70.00000000000001" y="128.97" width="231.52" height="63.03" as="geometry" />
        </mxCell>
        <mxCell id="E3ElCluI1RF2q3SBLRe1-76" value="&lt;b&gt;Ponto de partida&lt;/b&gt;" style="text;html=1;align=center;verticalAlign=middle;whiteSpace=wrap;rounded=0;" parent="1" vertex="1">
          <mxGeometry x="-135" y="32" width="110" height="30" as="geometry" />
        </mxCell>
        <mxCell id="E3ElCluI1RF2q3SBLRe1-87" value="&lt;b&gt;Principais resultados &lt;/b&gt;&lt;b&gt;atingidos&lt;/b&gt;" style="text;html=1;align=center;verticalAlign=middle;whiteSpace=wrap;rounded=0;" parent="1" vertex="1">
          <mxGeometry x="290.52" y="215" width="190" height="30" as="geometry" />
        </mxCell>
      </root>
    </mxGraphModel>
  </diagram>
</mxfile>
